%TF.GenerationSoftware,KiCad,Pcbnew,8.0.1*%
%TF.CreationDate,2024-04-24T20:58:42-04:00*%
%TF.ProjectId,Bluephil,426c7565-7068-4696-9c2e-6b696361645f,rev?*%
%TF.SameCoordinates,PX95ba140PY6dac2c0*%
%TF.FileFunction,Copper,L3,Inr*%
%TF.FilePolarity,Positive*%
%FSLAX46Y46*%
G04 Gerber Fmt 4.6, Leading zero omitted, Abs format (unit mm)*
G04 Created by KiCad (PCBNEW 8.0.1) date 2024-04-24 20:58:42*
%MOMM*%
%LPD*%
G01*
G04 APERTURE LIST*
G04 Aperture macros list*
%AMRoundRect*
0 Rectangle with rounded corners*
0 $1 Rounding radius*
0 $2 $3 $4 $5 $6 $7 $8 $9 X,Y pos of 4 corners*
0 Add a 4 corners polygon primitive as box body*
4,1,4,$2,$3,$4,$5,$6,$7,$8,$9,$2,$3,0*
0 Add four circle primitives for the rounded corners*
1,1,$1+$1,$2,$3*
1,1,$1+$1,$4,$5*
1,1,$1+$1,$6,$7*
1,1,$1+$1,$8,$9*
0 Add four rect primitives between the rounded corners*
20,1,$1+$1,$2,$3,$4,$5,0*
20,1,$1+$1,$4,$5,$6,$7,0*
20,1,$1+$1,$6,$7,$8,$9,0*
20,1,$1+$1,$8,$9,$2,$3,0*%
G04 Aperture macros list end*
%TA.AperFunction,ComponentPad*%
%ADD10O,1.800000X1.000000*%
%TD*%
%TA.AperFunction,ComponentPad*%
%ADD11O,2.100000X1.000000*%
%TD*%
%TA.AperFunction,ComponentPad*%
%ADD12C,3.800000*%
%TD*%
%TA.AperFunction,ComponentPad*%
%ADD13RoundRect,0.200000X-0.450000X0.200000X-0.450000X-0.200000X0.450000X-0.200000X0.450000X0.200000X0*%
%TD*%
%TA.AperFunction,ComponentPad*%
%ADD14O,1.300000X0.800000*%
%TD*%
%TA.AperFunction,ViaPad*%
%ADD15C,0.700000*%
%TD*%
G04 APERTURE END LIST*
D10*
%TO.N,GND*%
%TO.C,J1*%
X2245000Y14688000D03*
D11*
X6425000Y14688000D03*
D10*
X2245000Y23328000D03*
D11*
X6425000Y23328000D03*
%TD*%
D12*
%TO.N,GND*%
%TO.C,H4*%
X35000000Y3000000D03*
%TD*%
%TO.N,GND*%
%TO.C,H3*%
X35000000Y27000000D03*
%TD*%
%TO.N,GND*%
%TO.C,H2*%
X3000000Y3000000D03*
%TD*%
%TO.N,GND*%
%TO.C,H1*%
X3000000Y27000000D03*
%TD*%
D13*
%TO.N,GND*%
%TO.C,J3*%
X4700000Y11375000D03*
D14*
%TO.N,/UART_TXR*%
X4700000Y10125000D03*
%TO.N,/UART_TXC*%
X4700000Y8875000D03*
%TO.N,+3.3V*%
X4700000Y7625000D03*
%TD*%
D15*
%TO.N,GND*%
X13500000Y12500000D03*
X14950000Y8400000D03*
X19200000Y12350000D03*
X23450000Y12400000D03*
X23500000Y16650000D03*
X19150000Y16650000D03*
X20100000Y15750000D03*
X22500000Y15750000D03*
X22500000Y13400000D03*
X20100000Y13300000D03*
X21300000Y12250000D03*
X21250000Y16750000D03*
X23400000Y14500000D03*
X19200000Y14450000D03*
X32000000Y14900000D03*
X32000000Y16600000D03*
X10400000Y14950000D03*
X12750000Y14950000D03*
X8600000Y18975000D03*
X18250000Y23050000D03*
X17300000Y23050000D03*
X23750000Y19000000D03*
X23750000Y20100000D03*
X25450000Y18800000D03*
X28300000Y21450000D03*
X36650000Y18250000D03*
X35550000Y18250000D03*
X34400000Y18250000D03*
X36800000Y13300000D03*
X35550000Y13250000D03*
X34350000Y13300000D03*
X27300000Y7875000D03*
X26000000Y7875000D03*
X16752927Y12554904D03*
X16647043Y14350741D03*
X9950000Y12900000D03*
X8750000Y12900000D03*
X8650000Y5450000D03*
X29450000Y14750000D03*
X28000000Y14750000D03*
X26000000Y13200000D03*
X27220000Y16710000D03*
X19000000Y21050000D03*
X16200000Y19250000D03*
X8050000Y22250000D03*
X10800000Y21250000D03*
X10600000Y16750000D03*
X15140000Y17400000D03*
X15700000Y10750000D03*
X15700000Y5800000D03*
X17620000Y7720000D03*
X21215000Y9450000D03*
X22550000Y7950000D03*
X24665000Y6625000D03*
%TD*%
%TA.AperFunction,Conductor*%
%TO.N,GND*%
G36*
X36002642Y29699312D02*
G01*
X36236581Y29682580D01*
X36247030Y29681079D01*
X36473645Y29631781D01*
X36483757Y29628811D01*
X36701039Y29547770D01*
X36710637Y29543387D01*
X36914173Y29432247D01*
X36923054Y29426539D01*
X37108698Y29287568D01*
X37116678Y29280654D01*
X37280653Y29116679D01*
X37287567Y29108699D01*
X37426538Y28923055D01*
X37432246Y28914174D01*
X37543384Y28710642D01*
X37547770Y28701037D01*
X37628807Y28483767D01*
X37631782Y28473637D01*
X37681077Y28247032D01*
X37682579Y28236581D01*
X37699311Y28002643D01*
X37699500Y27997364D01*
X37699500Y2002637D01*
X37699311Y1997358D01*
X37682579Y1763420D01*
X37681077Y1752969D01*
X37631782Y1526364D01*
X37628807Y1516234D01*
X37547770Y1298964D01*
X37543384Y1289359D01*
X37432246Y1085827D01*
X37426538Y1076946D01*
X37287567Y891302D01*
X37280653Y883322D01*
X37116678Y719347D01*
X37108698Y712433D01*
X36923054Y573462D01*
X36914173Y567754D01*
X36710641Y456616D01*
X36701036Y452230D01*
X36483766Y371193D01*
X36473636Y368218D01*
X36247031Y318923D01*
X36236580Y317421D01*
X36002643Y300689D01*
X35997364Y300500D01*
X2002636Y300500D01*
X1997357Y300689D01*
X1763419Y317421D01*
X1752968Y318923D01*
X1526363Y368218D01*
X1516233Y371193D01*
X1298963Y452230D01*
X1289358Y456616D01*
X1085826Y567754D01*
X1076945Y573462D01*
X891301Y712433D01*
X883321Y719347D01*
X719346Y883322D01*
X712432Y891302D01*
X573461Y1076946D01*
X567753Y1085827D01*
X521042Y1171371D01*
X456613Y1289363D01*
X452229Y1298964D01*
X446493Y1314343D01*
X371189Y1516243D01*
X368219Y1526355D01*
X318921Y1752970D01*
X317420Y1763420D01*
X300689Y1997358D01*
X300500Y2002637D01*
X300500Y3000000D01*
X695065Y3000000D01*
X714785Y2699139D01*
X773605Y2403435D01*
X870519Y2117937D01*
X1003867Y1847534D01*
X1003873Y1847523D01*
X1171370Y1596847D01*
X1287569Y1464348D01*
X2138097Y2314877D01*
X2160967Y2283398D01*
X2283398Y2160967D01*
X2314874Y2138099D01*
X1464346Y1287571D01*
X1596846Y1171371D01*
X1847522Y1003874D01*
X1847533Y1003868D01*
X2117936Y870520D01*
X2403434Y773606D01*
X2699138Y714786D01*
X3000000Y695066D01*
X3300861Y714786D01*
X3596565Y773606D01*
X3882063Y870520D01*
X4152466Y1003868D01*
X4152477Y1003874D01*
X4403153Y1171371D01*
X4535652Y1287571D01*
X3685125Y2138098D01*
X3716602Y2160967D01*
X3839033Y2283398D01*
X3861902Y2314875D01*
X4712429Y1464348D01*
X4828629Y1596847D01*
X4996126Y1847523D01*
X4996132Y1847534D01*
X5129480Y2117937D01*
X5226394Y2403435D01*
X5285214Y2699139D01*
X5304934Y3000000D01*
X32695065Y3000000D01*
X32714785Y2699139D01*
X32773605Y2403435D01*
X32870519Y2117937D01*
X33003867Y1847534D01*
X33003873Y1847523D01*
X33171370Y1596847D01*
X33287569Y1464348D01*
X34138097Y2314877D01*
X34160967Y2283398D01*
X34283398Y2160967D01*
X34314874Y2138099D01*
X33464346Y1287571D01*
X33596846Y1171371D01*
X33847522Y1003874D01*
X33847533Y1003868D01*
X34117936Y870520D01*
X34403434Y773606D01*
X34699138Y714786D01*
X35000000Y695066D01*
X35300861Y714786D01*
X35596565Y773606D01*
X35882063Y870520D01*
X36152466Y1003868D01*
X36152477Y1003874D01*
X36403153Y1171371D01*
X36535652Y1287571D01*
X35685125Y2138098D01*
X35716602Y2160967D01*
X35839033Y2283398D01*
X35861902Y2314875D01*
X36712429Y1464348D01*
X36828629Y1596847D01*
X36996126Y1847523D01*
X36996132Y1847534D01*
X37129480Y2117937D01*
X37226394Y2403435D01*
X37285214Y2699139D01*
X37304934Y3000000D01*
X37285214Y3300862D01*
X37226394Y3596566D01*
X37129480Y3882064D01*
X36996132Y4152466D01*
X36996126Y4152477D01*
X36828629Y4403154D01*
X36712429Y4535654D01*
X35861901Y3685126D01*
X35839033Y3716602D01*
X35716602Y3839033D01*
X35685123Y3861903D01*
X36535652Y4712431D01*
X36403153Y4828630D01*
X36152477Y4996127D01*
X36152466Y4996133D01*
X35882063Y5129481D01*
X35596565Y5226395D01*
X35300861Y5285215D01*
X35000000Y5304935D01*
X34699138Y5285215D01*
X34403434Y5226395D01*
X34117936Y5129481D01*
X33847534Y4996133D01*
X33847523Y4996127D01*
X33596847Y4828631D01*
X33596836Y4828622D01*
X33464346Y4712431D01*
X34314874Y3861903D01*
X34283398Y3839033D01*
X34160967Y3716602D01*
X34138097Y3685126D01*
X33287569Y4535654D01*
X33171378Y4403164D01*
X33171369Y4403153D01*
X33003873Y4152477D01*
X33003867Y4152466D01*
X32870519Y3882064D01*
X32773605Y3596566D01*
X32714785Y3300862D01*
X32695065Y3000000D01*
X5304934Y3000000D01*
X5285214Y3300862D01*
X5226394Y3596566D01*
X5129480Y3882064D01*
X4996132Y4152466D01*
X4996126Y4152477D01*
X4828629Y4403154D01*
X4712429Y4535654D01*
X3861901Y3685126D01*
X3839033Y3716602D01*
X3716602Y3839033D01*
X3685123Y3861903D01*
X4535652Y4712431D01*
X4403153Y4828630D01*
X4152477Y4996127D01*
X4152466Y4996133D01*
X3882063Y5129481D01*
X3596565Y5226395D01*
X3374531Y5270561D01*
X9018200Y5270561D01*
X9047243Y5124548D01*
X9047245Y5124541D01*
X9104218Y4986995D01*
X9186929Y4863210D01*
X9186932Y4863206D01*
X9292206Y4757932D01*
X9415994Y4675219D01*
X9553541Y4618245D01*
X9699560Y4589200D01*
X9699561Y4589200D01*
X9848439Y4589200D01*
X9848440Y4589200D01*
X9994459Y4618245D01*
X10132006Y4675219D01*
X10255794Y4757932D01*
X10361068Y4863206D01*
X10443781Y4986994D01*
X10500755Y5124541D01*
X10529800Y5270560D01*
X10529800Y5270561D01*
X11050200Y5270561D01*
X11079243Y5124548D01*
X11079245Y5124541D01*
X11136218Y4986995D01*
X11218929Y4863210D01*
X11218932Y4863206D01*
X11324206Y4757932D01*
X11447994Y4675219D01*
X11585541Y4618245D01*
X11731560Y4589200D01*
X11731561Y4589200D01*
X11880439Y4589200D01*
X11880440Y4589200D01*
X12026459Y4618245D01*
X12164006Y4675219D01*
X12287794Y4757932D01*
X12393068Y4863206D01*
X12475781Y4986994D01*
X12532755Y5124541D01*
X12561800Y5270560D01*
X12561800Y5419440D01*
X12532755Y5565459D01*
X12475781Y5703006D01*
X12393068Y5826794D01*
X12287794Y5932068D01*
X12240581Y5963615D01*
X12164005Y6014782D01*
X12026459Y6071755D01*
X12026452Y6071757D01*
X11914782Y6093969D01*
X11880440Y6100800D01*
X11731560Y6100800D01*
X11702674Y6095055D01*
X11585547Y6071757D01*
X11585540Y6071755D01*
X11447994Y6014782D01*
X11324209Y5932071D01*
X11218929Y5826791D01*
X11136218Y5703006D01*
X11079245Y5565460D01*
X11079243Y5565453D01*
X11050200Y5419440D01*
X11050200Y5270561D01*
X10529800Y5270561D01*
X10529800Y5419440D01*
X10500755Y5565459D01*
X10443781Y5703006D01*
X10361068Y5826794D01*
X10255794Y5932068D01*
X10208581Y5963615D01*
X10132005Y6014782D01*
X9994459Y6071755D01*
X9994452Y6071757D01*
X9882782Y6093969D01*
X9848440Y6100800D01*
X9699560Y6100800D01*
X9670674Y6095055D01*
X9553547Y6071757D01*
X9553540Y6071755D01*
X9415994Y6014782D01*
X9292209Y5932071D01*
X9186929Y5826791D01*
X9104218Y5703006D01*
X9047245Y5565460D01*
X9047243Y5565453D01*
X9018200Y5419440D01*
X9018200Y5270561D01*
X3374531Y5270561D01*
X3300861Y5285215D01*
X3000000Y5304935D01*
X2699138Y5285215D01*
X2403434Y5226395D01*
X2117936Y5129481D01*
X1847534Y4996133D01*
X1847523Y4996127D01*
X1596847Y4828631D01*
X1596836Y4828622D01*
X1464346Y4712431D01*
X2314874Y3861903D01*
X2283398Y3839033D01*
X2160967Y3716602D01*
X2138097Y3685126D01*
X1287569Y4535654D01*
X1171378Y4403164D01*
X1171369Y4403153D01*
X1003873Y4152477D01*
X1003867Y4152466D01*
X870519Y3882064D01*
X773605Y3596566D01*
X714785Y3300862D01*
X695065Y3000000D01*
X300500Y3000000D01*
X300500Y11500000D01*
X3650000Y11500000D01*
X4481178Y11500000D01*
X4450000Y11424728D01*
X4450000Y11325272D01*
X4481178Y11250000D01*
X3650001Y11250000D01*
X3650001Y11135679D01*
X3665443Y11018372D01*
X3665444Y11018368D01*
X3725900Y10872413D01*
X3822075Y10747076D01*
X3901875Y10685843D01*
X3930193Y10636794D01*
X3915534Y10582086D01*
X3909156Y10574814D01*
X3905893Y10571552D01*
X3905885Y10571542D01*
X3829223Y10456809D01*
X3776421Y10329333D01*
X3776418Y10329323D01*
X3749500Y10193992D01*
X3749500Y10056009D01*
X3776418Y9920678D01*
X3776421Y9920668D01*
X3829223Y9793192D01*
X3892664Y9698245D01*
X3905886Y9678458D01*
X4003458Y9580886D01*
X4003461Y9580884D01*
X4003463Y9580882D01*
X4032428Y9561528D01*
X4063893Y9514436D01*
X4052843Y9458887D01*
X4032428Y9438472D01*
X4003463Y9419119D01*
X3905883Y9321539D01*
X3829223Y9206809D01*
X3776421Y9079333D01*
X3776418Y9079323D01*
X3749500Y8943992D01*
X3749500Y8806009D01*
X3776418Y8670678D01*
X3776421Y8670668D01*
X3829223Y8543192D01*
X3829224Y8543190D01*
X3829225Y8543189D01*
X3905886Y8428458D01*
X4003458Y8330886D01*
X4003461Y8330884D01*
X4003463Y8330882D01*
X4032428Y8311528D01*
X4063893Y8264436D01*
X4052843Y8208887D01*
X4032428Y8188472D01*
X4003463Y8169119D01*
X3905883Y8071539D01*
X3829223Y7956809D01*
X3776421Y7829333D01*
X3776418Y7829323D01*
X3755456Y7723937D01*
X3749500Y7693993D01*
X3749500Y7556007D01*
X3756762Y7519500D01*
X3776418Y7420678D01*
X3776421Y7420668D01*
X3829223Y7293192D01*
X3829224Y7293190D01*
X3829225Y7293189D01*
X3905886Y7178458D01*
X4003458Y7080886D01*
X4118189Y7004225D01*
X4245672Y6951420D01*
X4381007Y6924500D01*
X4381009Y6924500D01*
X5018991Y6924500D01*
X5018993Y6924500D01*
X5154328Y6951420D01*
X5281811Y7004225D01*
X5396542Y7080886D01*
X5451699Y7136043D01*
X6802050Y7136043D01*
X6837703Y6910941D01*
X6837706Y6910928D01*
X6908130Y6694183D01*
X6908132Y6694179D01*
X7004400Y6505243D01*
X7011602Y6491109D01*
X7145566Y6306724D01*
X7306724Y6145566D01*
X7306727Y6145564D01*
X7306728Y6145563D01*
X7422408Y6061516D01*
X7491109Y6011602D01*
X7585289Y5963615D01*
X7694178Y5908133D01*
X7694182Y5908131D01*
X7910927Y5837707D01*
X7910933Y5837706D01*
X7910938Y5837704D01*
X7979820Y5826794D01*
X8136042Y5802050D01*
X8136044Y5802050D01*
X8363958Y5802050D01*
X8453998Y5816312D01*
X8589062Y5837704D01*
X8589069Y5837707D01*
X8589072Y5837707D01*
X8805817Y5908131D01*
X8805817Y5908132D01*
X8805820Y5908132D01*
X9008891Y6011602D01*
X9193276Y6145566D01*
X9354434Y6306724D01*
X9488398Y6491109D01*
X9591868Y6694180D01*
X9662296Y6910938D01*
X9697950Y7136043D01*
X11882050Y7136043D01*
X11917703Y6910941D01*
X11917706Y6910928D01*
X11988130Y6694183D01*
X11988132Y6694179D01*
X12084400Y6505243D01*
X12091602Y6491109D01*
X12225566Y6306724D01*
X12386724Y6145566D01*
X12386727Y6145564D01*
X12386728Y6145563D01*
X12502408Y6061516D01*
X12571109Y6011602D01*
X12665289Y5963615D01*
X12774178Y5908133D01*
X12774182Y5908131D01*
X12990927Y5837707D01*
X12990933Y5837706D01*
X12990938Y5837704D01*
X13059820Y5826794D01*
X13216042Y5802050D01*
X13216044Y5802050D01*
X13443958Y5802050D01*
X13533998Y5816312D01*
X13669062Y5837704D01*
X13669069Y5837707D01*
X13669072Y5837707D01*
X13724126Y5855596D01*
X13811027Y5883831D01*
X13867489Y5879388D01*
X13904272Y5836320D01*
X13907141Y5802922D01*
X13894867Y5717551D01*
X13913302Y5589327D01*
X13913302Y5589326D01*
X13913303Y5589324D01*
X13967118Y5471487D01*
X14051951Y5373583D01*
X14160931Y5303546D01*
X14285228Y5267050D01*
X14414772Y5267050D01*
X14529341Y5300690D01*
X14585654Y5294635D01*
X14621192Y5250535D01*
X14623436Y5219156D01*
X14604867Y5090001D01*
X14623302Y4961777D01*
X14623302Y4961776D01*
X14623303Y4961774D01*
X14677118Y4843937D01*
X14761951Y4746033D01*
X14870931Y4675996D01*
X14995228Y4639500D01*
X15124772Y4639500D01*
X15249069Y4675996D01*
X15358049Y4746033D01*
X15442882Y4843937D01*
X15496697Y4961774D01*
X15515133Y5090000D01*
X15496697Y5218226D01*
X15442882Y5336063D01*
X15358049Y5433967D01*
X15249175Y5503936D01*
X15249068Y5504005D01*
X15124772Y5540500D01*
X14995228Y5540500D01*
X14995227Y5540500D01*
X14880657Y5506861D01*
X14824345Y5512916D01*
X14788807Y5557017D01*
X14786563Y5588395D01*
X14786697Y5589327D01*
X14805133Y5717550D01*
X14800467Y5750000D01*
X16244867Y5750000D01*
X16263302Y5621777D01*
X16263302Y5621776D01*
X16263303Y5621774D01*
X16317118Y5503937D01*
X16401951Y5406033D01*
X16510931Y5335996D01*
X16635228Y5299500D01*
X16764772Y5299500D01*
X16889069Y5335996D01*
X16998049Y5406033D01*
X17082882Y5503937D01*
X17136697Y5621774D01*
X17155133Y5750000D01*
X17136697Y5878226D01*
X17082882Y5996063D01*
X16998049Y6093967D01*
X16917759Y6145566D01*
X16889068Y6164005D01*
X16764772Y6200500D01*
X16635228Y6200500D01*
X16510931Y6164005D01*
X16401954Y6093969D01*
X16401950Y6093966D01*
X16317119Y5996065D01*
X16263302Y5878224D01*
X16244867Y5750000D01*
X14800467Y5750000D01*
X14786697Y5845776D01*
X14732882Y5963613D01*
X14648049Y6061517D01*
X14581032Y6104586D01*
X14539068Y6131555D01*
X14442442Y6159926D01*
X14398342Y6195464D01*
X14392287Y6251777D01*
X14410963Y6283254D01*
X14434434Y6306724D01*
X14568398Y6491109D01*
X14671868Y6694180D01*
X14742296Y6910938D01*
X14777950Y7136044D01*
X14777950Y7363956D01*
X14742296Y7589062D01*
X14742294Y7589067D01*
X14742293Y7589073D01*
X14671869Y7805818D01*
X14671867Y7805822D01*
X14659890Y7829328D01*
X14588214Y7970000D01*
X23174867Y7970000D01*
X23193302Y7841777D01*
X23193302Y7841776D01*
X23193303Y7841774D01*
X23247118Y7723937D01*
X23331951Y7626033D01*
X23440931Y7555996D01*
X23565228Y7519500D01*
X23694772Y7519500D01*
X23819069Y7555996D01*
X23928049Y7626033D01*
X24012882Y7723937D01*
X24066697Y7841774D01*
X24085133Y7970000D01*
X24066697Y8098226D01*
X24012882Y8216063D01*
X23928049Y8313967D01*
X23861032Y8357036D01*
X23819068Y8384005D01*
X23694772Y8420500D01*
X23565228Y8420500D01*
X23440931Y8384005D01*
X23331954Y8313969D01*
X23331950Y8313966D01*
X23247119Y8216065D01*
X23247118Y8216064D01*
X23247118Y8216063D01*
X23234517Y8188471D01*
X23193302Y8098224D01*
X23174867Y7970000D01*
X14588214Y7970000D01*
X14568398Y8008891D01*
X14522881Y8071539D01*
X14434437Y8193272D01*
X14434436Y8193273D01*
X14434434Y8193276D01*
X14273276Y8354434D01*
X14273273Y8354437D01*
X14273271Y8354438D01*
X14088893Y8488397D01*
X14088887Y8488400D01*
X13885821Y8591868D01*
X13885817Y8591870D01*
X13669072Y8662294D01*
X13669059Y8662297D01*
X13443958Y8697950D01*
X13443956Y8697950D01*
X13216044Y8697950D01*
X13216042Y8697950D01*
X12990940Y8662297D01*
X12990927Y8662294D01*
X12774182Y8591870D01*
X12774178Y8591868D01*
X12571112Y8488400D01*
X12571106Y8488397D01*
X12386728Y8354438D01*
X12225562Y8193272D01*
X12091603Y8008894D01*
X12091600Y8008888D01*
X11988132Y7805822D01*
X11988130Y7805818D01*
X11917706Y7589073D01*
X11917703Y7589060D01*
X11882050Y7363958D01*
X11882050Y7136043D01*
X9697950Y7136043D01*
X9697950Y7136044D01*
X9697950Y7363956D01*
X9662296Y7589062D01*
X9662294Y7589067D01*
X9662293Y7589073D01*
X9591869Y7805818D01*
X9591867Y7805822D01*
X9579890Y7829328D01*
X9488398Y8008891D01*
X9442881Y8071539D01*
X9354437Y8193272D01*
X9354436Y8193273D01*
X9354434Y8193276D01*
X9193276Y8354434D01*
X9193273Y8354437D01*
X9193271Y8354438D01*
X9008893Y8488397D01*
X9008887Y8488400D01*
X8805821Y8591868D01*
X8805817Y8591870D01*
X8589072Y8662294D01*
X8589059Y8662297D01*
X8363958Y8697950D01*
X8363956Y8697950D01*
X8136044Y8697950D01*
X8136042Y8697950D01*
X7910940Y8662297D01*
X7910927Y8662294D01*
X7694182Y8591870D01*
X7694178Y8591868D01*
X7491112Y8488400D01*
X7491106Y8488397D01*
X7306728Y8354438D01*
X7145562Y8193272D01*
X7011603Y8008894D01*
X7011600Y8008888D01*
X6908132Y7805822D01*
X6908130Y7805818D01*
X6837706Y7589073D01*
X6837703Y7589060D01*
X6802050Y7363958D01*
X6802050Y7136043D01*
X5451699Y7136043D01*
X5494114Y7178458D01*
X5570775Y7293189D01*
X5623580Y7420672D01*
X5650500Y7556007D01*
X5650500Y7693993D01*
X5623580Y7829328D01*
X5618425Y7841774D01*
X5570776Y7956809D01*
X5494116Y8071539D01*
X5494114Y8071542D01*
X5396542Y8169114D01*
X5367571Y8188472D01*
X5336106Y8235563D01*
X5347155Y8291112D01*
X5367572Y8311529D01*
X5371224Y8313969D01*
X5396542Y8330886D01*
X5494114Y8428458D01*
X5570775Y8543189D01*
X5623580Y8670672D01*
X5650500Y8806007D01*
X5650500Y8943993D01*
X5623580Y9079328D01*
X5570775Y9206811D01*
X5494114Y9321542D01*
X5396542Y9419114D01*
X5367571Y9438472D01*
X5336106Y9485563D01*
X5347155Y9541112D01*
X5367572Y9561529D01*
X5396542Y9580886D01*
X5494114Y9678458D01*
X5570775Y9793189D01*
X5623580Y9920672D01*
X5650500Y10056007D01*
X5650500Y10193993D01*
X5627217Y10311043D01*
X6802050Y10311043D01*
X6837703Y10085941D01*
X6837706Y10085928D01*
X6908130Y9869183D01*
X6908132Y9869179D01*
X7011600Y9666113D01*
X7011603Y9666107D01*
X7145562Y9481729D01*
X7145566Y9481724D01*
X7306724Y9320566D01*
X7306727Y9320564D01*
X7306728Y9320563D01*
X7463296Y9206809D01*
X7491109Y9186602D01*
X7687113Y9086733D01*
X7694178Y9083133D01*
X7694182Y9083131D01*
X7910927Y9012707D01*
X7910933Y9012706D01*
X7910938Y9012704D01*
X8023491Y8994877D01*
X8136042Y8977050D01*
X8136044Y8977050D01*
X8363958Y8977050D01*
X8453998Y8991312D01*
X8589062Y9012704D01*
X8589069Y9012707D01*
X8589072Y9012707D01*
X8805817Y9083131D01*
X8805817Y9083132D01*
X8805820Y9083132D01*
X9008891Y9186602D01*
X9193276Y9320566D01*
X9354434Y9481724D01*
X9488398Y9666109D01*
X9591868Y9869180D01*
X9608599Y9920672D01*
X9662293Y10085928D01*
X9662294Y10085932D01*
X9662296Y10085938D01*
X9697950Y10311044D01*
X9697950Y10350561D01*
X10034200Y10350561D01*
X10063243Y10204548D01*
X10063245Y10204541D01*
X10120218Y10066995D01*
X10202929Y9943210D01*
X10202932Y9943206D01*
X10308206Y9837932D01*
X10431994Y9755219D01*
X10569541Y9698245D01*
X10715560Y9669200D01*
X10715561Y9669200D01*
X10864439Y9669200D01*
X10864440Y9669200D01*
X11010459Y9698245D01*
X11148006Y9755219D01*
X11271794Y9837932D01*
X11377068Y9943206D01*
X11459781Y10066994D01*
X11516755Y10204541D01*
X11537940Y10311043D01*
X11882050Y10311043D01*
X11917703Y10085941D01*
X11917706Y10085928D01*
X11988130Y9869183D01*
X11988132Y9869179D01*
X12091600Y9666113D01*
X12091603Y9666107D01*
X12225562Y9481729D01*
X12225566Y9481724D01*
X12386724Y9320566D01*
X12386727Y9320564D01*
X12386728Y9320563D01*
X12543296Y9206809D01*
X12571109Y9186602D01*
X12767113Y9086733D01*
X12774178Y9083133D01*
X12774182Y9083131D01*
X12990927Y9012707D01*
X12990933Y9012706D01*
X12990938Y9012704D01*
X13103491Y8994877D01*
X13216042Y8977050D01*
X13216044Y8977050D01*
X13443958Y8977050D01*
X13533998Y8991312D01*
X13669062Y9012704D01*
X13669069Y9012707D01*
X13669072Y9012707D01*
X13885817Y9083131D01*
X13885817Y9083132D01*
X13885820Y9083132D01*
X14088891Y9186602D01*
X14273276Y9320566D01*
X14380058Y9427349D01*
X14432383Y9449022D01*
X14484709Y9427348D01*
X14505630Y9385554D01*
X14512466Y9338010D01*
X14512466Y9338009D01*
X14512467Y9338007D01*
X14566282Y9220170D01*
X14651115Y9122266D01*
X14760095Y9052229D01*
X14884392Y9015733D01*
X15013936Y9015733D01*
X15138233Y9052229D01*
X15247213Y9122266D01*
X15332046Y9220170D01*
X15385861Y9338007D01*
X15404297Y9466233D01*
X15385861Y9594459D01*
X15332046Y9712296D01*
X15247213Y9810200D01*
X15185283Y9850000D01*
X17044867Y9850000D01*
X17063302Y9721777D01*
X17063302Y9721776D01*
X17063303Y9721774D01*
X17117118Y9603937D01*
X17201951Y9506033D01*
X17310931Y9435996D01*
X17435228Y9399500D01*
X17564772Y9399500D01*
X17689069Y9435996D01*
X17798049Y9506033D01*
X17882882Y9603937D01*
X17936697Y9721774D01*
X17947944Y9800000D01*
X19794867Y9800000D01*
X19813302Y9671777D01*
X19813302Y9671776D01*
X19813303Y9671774D01*
X19867118Y9553937D01*
X19951951Y9456033D01*
X20060931Y9385996D01*
X20185228Y9349500D01*
X20314772Y9349500D01*
X20439069Y9385996D01*
X20548049Y9456033D01*
X20632882Y9553937D01*
X20686697Y9671774D01*
X20705133Y9800000D01*
X20686697Y9928226D01*
X20632882Y10046063D01*
X20548049Y10143967D01*
X20470244Y10193969D01*
X20439068Y10214005D01*
X20314772Y10250500D01*
X20185228Y10250500D01*
X20060931Y10214005D01*
X19951954Y10143969D01*
X19951950Y10143966D01*
X19867119Y10046065D01*
X19813302Y9928224D01*
X19794867Y9800000D01*
X17947944Y9800000D01*
X17955133Y9850000D01*
X17936697Y9978226D01*
X17882882Y10096063D01*
X17798049Y10193967D01*
X17710082Y10250500D01*
X17689068Y10264005D01*
X17564772Y10300500D01*
X17435228Y10300500D01*
X17310931Y10264005D01*
X17201954Y10193969D01*
X17201950Y10193966D01*
X17117119Y10096065D01*
X17117118Y10096064D01*
X17117118Y10096063D01*
X17090210Y10037145D01*
X17063302Y9978224D01*
X17044867Y9850000D01*
X15185283Y9850000D01*
X15155438Y9869180D01*
X15138232Y9880238D01*
X15013936Y9916733D01*
X14884392Y9916733D01*
X14884391Y9916733D01*
X14801097Y9892277D01*
X14744785Y9898332D01*
X14709247Y9942433D01*
X14709871Y9986146D01*
X14742296Y10085938D01*
X14777950Y10311044D01*
X14777950Y10538956D01*
X14770499Y10585996D01*
X14745192Y10745775D01*
X14742296Y10764062D01*
X14742294Y10764067D01*
X14742293Y10764073D01*
X14671869Y10980818D01*
X14671867Y10980822D01*
X14662095Y11000000D01*
X16944867Y11000000D01*
X16963302Y10871777D01*
X16963302Y10871776D01*
X16963303Y10871774D01*
X17017118Y10753937D01*
X17101951Y10656033D01*
X17210931Y10585996D01*
X17335228Y10549500D01*
X17464772Y10549500D01*
X17589069Y10585996D01*
X17698049Y10656033D01*
X17782882Y10753937D01*
X17836697Y10871774D01*
X17855133Y11000000D01*
X17836697Y11128226D01*
X17782882Y11246063D01*
X17698049Y11343967D01*
X17631032Y11387036D01*
X17589068Y11414005D01*
X17551621Y11425000D01*
X25794867Y11425000D01*
X25813302Y11296777D01*
X25813302Y11296776D01*
X25813303Y11296774D01*
X25867118Y11178937D01*
X25951951Y11081033D01*
X26060931Y11010996D01*
X26185228Y10974500D01*
X26314772Y10974500D01*
X26439069Y11010996D01*
X26548049Y11081033D01*
X26632882Y11178937D01*
X26657688Y11233254D01*
X26699140Y11271846D01*
X26755741Y11269825D01*
X26792311Y11233255D01*
X26817118Y11178937D01*
X26901951Y11081033D01*
X27010931Y11010996D01*
X27135228Y10974500D01*
X27264772Y10974500D01*
X27389069Y11010996D01*
X27498049Y11081033D01*
X27582882Y11178937D01*
X27636697Y11296774D01*
X27655133Y11425000D01*
X27636697Y11553226D01*
X27582882Y11671063D01*
X27498049Y11768967D01*
X27391727Y11837296D01*
X27389068Y11839005D01*
X27264772Y11875500D01*
X27135228Y11875500D01*
X27010931Y11839005D01*
X26901954Y11768969D01*
X26901950Y11768966D01*
X26817118Y11671064D01*
X26817115Y11671060D01*
X26792312Y11616748D01*
X26750860Y11578154D01*
X26694259Y11580177D01*
X26657688Y11616748D01*
X26632884Y11671060D01*
X26632881Y11671064D01*
X26632880Y11671065D01*
X26548049Y11768967D01*
X26441727Y11837296D01*
X26439068Y11839005D01*
X26314772Y11875500D01*
X26185228Y11875500D01*
X26060931Y11839005D01*
X25951954Y11768969D01*
X25951950Y11768966D01*
X25867119Y11671065D01*
X25867118Y11671064D01*
X25867118Y11671063D01*
X25846081Y11625000D01*
X25813302Y11553224D01*
X25794867Y11425000D01*
X17551621Y11425000D01*
X17464772Y11450500D01*
X17335228Y11450500D01*
X17210931Y11414005D01*
X17101954Y11343969D01*
X17101950Y11343966D01*
X17017119Y11246065D01*
X16963302Y11128224D01*
X16944867Y11000000D01*
X14662095Y11000000D01*
X14568398Y11183891D01*
X14486383Y11296774D01*
X14434437Y11368272D01*
X14434436Y11368273D01*
X14434434Y11368276D01*
X14273276Y11529434D01*
X14273273Y11529437D01*
X14273271Y11529438D01*
X14088893Y11663397D01*
X14088887Y11663400D01*
X13885821Y11766868D01*
X13885817Y11766870D01*
X13669072Y11837294D01*
X13669059Y11837297D01*
X13443958Y11872950D01*
X13443956Y11872950D01*
X13216044Y11872950D01*
X13216042Y11872950D01*
X12990940Y11837297D01*
X12990927Y11837294D01*
X12774182Y11766870D01*
X12774178Y11766868D01*
X12571112Y11663400D01*
X12571106Y11663397D01*
X12386728Y11529438D01*
X12225562Y11368272D01*
X12091603Y11183894D01*
X12091600Y11183888D01*
X11988132Y10980822D01*
X11988130Y10980818D01*
X11917706Y10764073D01*
X11917703Y10764060D01*
X11882050Y10538958D01*
X11882050Y10311043D01*
X11537940Y10311043D01*
X11545800Y10350560D01*
X11545800Y10499440D01*
X11516755Y10645459D01*
X11459781Y10783006D01*
X11377068Y10906794D01*
X11271794Y11012068D01*
X11271790Y11012071D01*
X11148005Y11094782D01*
X11010459Y11151755D01*
X11010452Y11151757D01*
X10900450Y11173638D01*
X10864440Y11180800D01*
X10715560Y11180800D01*
X10686674Y11175055D01*
X10569547Y11151757D01*
X10569540Y11151755D01*
X10431994Y11094782D01*
X10308209Y11012071D01*
X10202929Y10906791D01*
X10120218Y10783006D01*
X10063245Y10645460D01*
X10063243Y10645453D01*
X10034200Y10499440D01*
X10034200Y10350561D01*
X9697950Y10350561D01*
X9697950Y10538956D01*
X9690499Y10585996D01*
X9665192Y10745775D01*
X9662296Y10764062D01*
X9662294Y10764067D01*
X9662293Y10764073D01*
X9591869Y10980818D01*
X9591867Y10980822D01*
X9582095Y11000000D01*
X9488398Y11183891D01*
X9406383Y11296774D01*
X9354437Y11368272D01*
X9354436Y11368273D01*
X9354434Y11368276D01*
X9193276Y11529434D01*
X9193273Y11529437D01*
X9193271Y11529438D01*
X9008893Y11663397D01*
X9008887Y11663400D01*
X8805821Y11766868D01*
X8805817Y11766870D01*
X8589072Y11837294D01*
X8589059Y11837297D01*
X8363958Y11872950D01*
X8363956Y11872950D01*
X8136044Y11872950D01*
X8136042Y11872950D01*
X7910940Y11837297D01*
X7910927Y11837294D01*
X7694182Y11766870D01*
X7694178Y11766868D01*
X7491112Y11663400D01*
X7491106Y11663397D01*
X7306728Y11529438D01*
X7145562Y11368272D01*
X7011603Y11183894D01*
X7011600Y11183888D01*
X6908132Y10980822D01*
X6908130Y10980818D01*
X6837706Y10764073D01*
X6837703Y10764060D01*
X6802050Y10538958D01*
X6802050Y10311043D01*
X5627217Y10311043D01*
X5623580Y10329328D01*
X5623578Y10329333D01*
X5570776Y10456809D01*
X5494116Y10571539D01*
X5494114Y10571542D01*
X5494104Y10571552D01*
X5490843Y10574814D01*
X5469173Y10627141D01*
X5490852Y10679465D01*
X5498125Y10685843D01*
X5577922Y10747074D01*
X5577923Y10747075D01*
X5674099Y10872413D01*
X5734556Y11018370D01*
X5750000Y11135679D01*
X5750000Y11250000D01*
X4918822Y11250000D01*
X4950000Y11325272D01*
X4950000Y11424728D01*
X4918822Y11500000D01*
X5749999Y11500000D01*
X5749999Y11614322D01*
X5734556Y11731629D01*
X5734555Y11731633D01*
X5674099Y11877588D01*
X5580168Y12000000D01*
X10044867Y12000000D01*
X10063302Y11871777D01*
X10063302Y11871776D01*
X10063303Y11871774D01*
X10117118Y11753937D01*
X10201951Y11656033D01*
X10310931Y11585996D01*
X10435228Y11549500D01*
X10564772Y11549500D01*
X10689069Y11585996D01*
X10798049Y11656033D01*
X10882882Y11753937D01*
X10936697Y11871774D01*
X10955133Y12000000D01*
X10936697Y12128226D01*
X10882882Y12246063D01*
X10798049Y12343967D01*
X10731032Y12387036D01*
X10689068Y12414005D01*
X10564772Y12450500D01*
X10435228Y12450500D01*
X10310931Y12414005D01*
X10201954Y12343969D01*
X10201950Y12343966D01*
X10117119Y12246065D01*
X10063302Y12128224D01*
X10044867Y12000000D01*
X5580168Y12000000D01*
X5577924Y12002925D01*
X5452587Y12099100D01*
X5306630Y12159557D01*
X5189321Y12175000D01*
X4825000Y12175000D01*
X4825000Y11593822D01*
X4749728Y11625000D01*
X4650272Y11625000D01*
X4575000Y11593822D01*
X4575000Y12175000D01*
X4210678Y12175000D01*
X4093371Y12159557D01*
X4093367Y12159556D01*
X3947412Y12099100D01*
X3822075Y12002925D01*
X3725900Y11877588D01*
X3665443Y11731631D01*
X3650000Y11614322D01*
X3650000Y11500000D01*
X300500Y11500000D01*
X300500Y12500000D01*
X12044867Y12500000D01*
X12063302Y12371777D01*
X12063302Y12371776D01*
X12063303Y12371774D01*
X12117118Y12253937D01*
X12201951Y12156033D01*
X12310931Y12085996D01*
X12435228Y12049500D01*
X12564772Y12049500D01*
X12689069Y12085996D01*
X12798049Y12156033D01*
X12882882Y12253937D01*
X12936697Y12371774D01*
X12955133Y12500000D01*
X12936697Y12628226D01*
X12882882Y12746063D01*
X12798049Y12843967D01*
X12731032Y12887036D01*
X12689068Y12914005D01*
X12564772Y12950500D01*
X12435228Y12950500D01*
X12310931Y12914005D01*
X12201954Y12843969D01*
X12201950Y12843966D01*
X12117119Y12746065D01*
X12063302Y12628224D01*
X12044867Y12500000D01*
X300500Y12500000D01*
X300500Y13448970D01*
X16194595Y13448970D01*
X16213030Y13320747D01*
X16213030Y13320746D01*
X16213031Y13320744D01*
X16266846Y13202907D01*
X16351679Y13105003D01*
X16460659Y13034966D01*
X16584956Y12998470D01*
X16714500Y12998470D01*
X16838797Y13034966D01*
X16947777Y13105003D01*
X17032610Y13202907D01*
X17086425Y13320744D01*
X17104861Y13448970D01*
X17086425Y13577196D01*
X17032610Y13695033D01*
X16947777Y13792937D01*
X16880760Y13836006D01*
X16838796Y13862975D01*
X16714500Y13899470D01*
X16584956Y13899470D01*
X16460659Y13862975D01*
X16351682Y13792939D01*
X16351678Y13792936D01*
X16266847Y13695035D01*
X16213030Y13577194D01*
X16194595Y13448970D01*
X300500Y13448970D01*
X300500Y14563000D01*
X952231Y14563000D01*
X979584Y14425487D01*
X979587Y14425476D01*
X1047427Y14261695D01*
X1145923Y14114284D01*
X1271283Y13988924D01*
X1418695Y13890428D01*
X1418694Y13890428D01*
X1582475Y13822588D01*
X1582486Y13822585D01*
X1756359Y13788000D01*
X2120000Y13788000D01*
X2120000Y14388000D01*
X2370000Y14388000D01*
X2370000Y13788000D01*
X2733641Y13788000D01*
X2907513Y13822585D01*
X2907524Y13822588D01*
X3071305Y13890428D01*
X3218716Y13988924D01*
X3218718Y13988925D01*
X3344075Y14114282D01*
X3344076Y14114284D01*
X3442572Y14261695D01*
X3510412Y14425476D01*
X3510415Y14425487D01*
X3537768Y14563000D01*
X4982231Y14563000D01*
X5009584Y14425487D01*
X5009587Y14425476D01*
X5077427Y14261695D01*
X5175923Y14114284D01*
X5301283Y13988924D01*
X5448695Y13890428D01*
X5448694Y13890428D01*
X5612475Y13822588D01*
X5612486Y13822585D01*
X5786359Y13788000D01*
X6300000Y13788000D01*
X6300000Y14388000D01*
X6550000Y14388000D01*
X6550000Y13788000D01*
X7063641Y13788000D01*
X7237513Y13822585D01*
X7237524Y13822588D01*
X7401305Y13890428D01*
X7415631Y13900000D01*
X26444867Y13900000D01*
X26463302Y13771777D01*
X26463302Y13771776D01*
X26463303Y13771774D01*
X26517118Y13653937D01*
X26601951Y13556033D01*
X26710931Y13485996D01*
X26835228Y13449500D01*
X26964772Y13449500D01*
X27089069Y13485996D01*
X27198049Y13556033D01*
X27282882Y13653937D01*
X27336697Y13771774D01*
X27355133Y13900000D01*
X27336697Y14028226D01*
X27282882Y14146063D01*
X27198049Y14243967D01*
X27131032Y14287036D01*
X27089068Y14314005D01*
X26964772Y14350500D01*
X26835228Y14350500D01*
X26710931Y14314005D01*
X26601954Y14243969D01*
X26601950Y14243966D01*
X26517119Y14146065D01*
X26463302Y14028224D01*
X26444867Y13900000D01*
X7415631Y13900000D01*
X7548716Y13988924D01*
X7548718Y13988925D01*
X7674075Y14114282D01*
X7674076Y14114284D01*
X7772572Y14261695D01*
X7840412Y14425476D01*
X7840415Y14425487D01*
X7867768Y14563000D01*
X7249242Y14563000D01*
X7254556Y14572204D01*
X7275000Y14648504D01*
X7275000Y14727496D01*
X7254556Y14803796D01*
X7249242Y14813000D01*
X7867768Y14813000D01*
X7867768Y14813001D01*
X7840415Y14950514D01*
X7840412Y14950525D01*
X7798300Y15052192D01*
X13189049Y15052192D01*
X13207484Y14923969D01*
X13207484Y14923968D01*
X13207485Y14923966D01*
X13261300Y14806129D01*
X13346133Y14708225D01*
X13455113Y14638188D01*
X13579410Y14601692D01*
X13708954Y14601692D01*
X13833251Y14638188D01*
X13942231Y14708225D01*
X13977716Y14749178D01*
X14028361Y14774529D01*
X14082100Y14756644D01*
X14089567Y14749177D01*
X14126947Y14706037D01*
X14126948Y14706036D01*
X14126951Y14706033D01*
X14235931Y14635996D01*
X14360228Y14599500D01*
X14489772Y14599500D01*
X14614069Y14635996D01*
X14723049Y14706033D01*
X14807882Y14803937D01*
X14861697Y14921774D01*
X14880133Y15050000D01*
X14861697Y15178226D01*
X14828581Y15250739D01*
X16194876Y15250739D01*
X16213311Y15122516D01*
X16213311Y15122515D01*
X16213312Y15122513D01*
X16267127Y15004676D01*
X16351960Y14906772D01*
X16460940Y14836735D01*
X16585237Y14800239D01*
X16714781Y14800239D01*
X16839078Y14836735D01*
X16948058Y14906772D01*
X17032891Y15004676D01*
X17086706Y15122513D01*
X17105142Y15250739D01*
X17086706Y15378965D01*
X17032891Y15496802D01*
X16948058Y15594706D01*
X16881041Y15637775D01*
X16839077Y15664744D01*
X16714781Y15701239D01*
X16585237Y15701239D01*
X16460940Y15664744D01*
X16351963Y15594708D01*
X16351959Y15594705D01*
X16267128Y15496804D01*
X16267127Y15496803D01*
X16267127Y15496802D01*
X16240219Y15437884D01*
X16213311Y15378963D01*
X16194876Y15250739D01*
X14828581Y15250739D01*
X14807882Y15296063D01*
X14723049Y15393967D01*
X14656032Y15437036D01*
X14614068Y15464005D01*
X14489772Y15500500D01*
X14360228Y15500500D01*
X14235931Y15464005D01*
X14126954Y15393969D01*
X14126946Y15393963D01*
X14091465Y15353015D01*
X14040818Y15327663D01*
X13987080Y15345550D01*
X13979614Y15353016D01*
X13942234Y15396156D01*
X13942232Y15396157D01*
X13942231Y15396159D01*
X13836662Y15464004D01*
X13833250Y15466197D01*
X13708954Y15502692D01*
X13579410Y15502692D01*
X13455113Y15466197D01*
X13346136Y15396161D01*
X13346132Y15396158D01*
X13261301Y15298257D01*
X13207484Y15180416D01*
X13189049Y15052192D01*
X7798300Y15052192D01*
X7772572Y15114306D01*
X7674076Y15261717D01*
X7548716Y15387077D01*
X7401304Y15485573D01*
X7401305Y15485573D01*
X7237524Y15553413D01*
X7237513Y15553416D01*
X7063641Y15588000D01*
X6550000Y15588000D01*
X6550000Y14988000D01*
X6300000Y14988000D01*
X6300000Y15607568D01*
X6292162Y15626490D01*
X6313835Y15678815D01*
X6393516Y15758495D01*
X6470599Y15892006D01*
X6499536Y16000000D01*
X7744867Y16000000D01*
X7763302Y15871777D01*
X7763302Y15871776D01*
X7763303Y15871774D01*
X7817118Y15753937D01*
X7901951Y15656033D01*
X8010931Y15585996D01*
X8135228Y15549500D01*
X8264772Y15549500D01*
X8389069Y15585996D01*
X8498049Y15656033D01*
X8582882Y15753937D01*
X8636697Y15871774D01*
X8655133Y16000000D01*
X8636697Y16128226D01*
X8582882Y16246063D01*
X8498049Y16343967D01*
X8401474Y16406032D01*
X8389068Y16414005D01*
X8264772Y16450500D01*
X8135228Y16450500D01*
X8010931Y16414005D01*
X7901954Y16343969D01*
X7901950Y16343966D01*
X7817119Y16246065D01*
X7763302Y16128224D01*
X7744867Y16000000D01*
X6499536Y16000000D01*
X6510499Y16040915D01*
X6510500Y16040915D01*
X6510500Y16195085D01*
X6510499Y16195086D01*
X6470600Y16343991D01*
X6470598Y16343996D01*
X6393518Y16477502D01*
X6393517Y16477503D01*
X6393516Y16477505D01*
X6284505Y16586516D01*
X6284502Y16586518D01*
X6284501Y16586519D01*
X6150995Y16663599D01*
X6150990Y16663601D01*
X6002085Y16703500D01*
X6002083Y16703500D01*
X5847917Y16703500D01*
X5847915Y16703500D01*
X5699009Y16663601D01*
X5699004Y16663599D01*
X5565498Y16586519D01*
X5456481Y16477502D01*
X5379401Y16343996D01*
X5379399Y16343991D01*
X5339500Y16195086D01*
X5339500Y16040915D01*
X5379399Y15892010D01*
X5379401Y15892005D01*
X5456481Y15758499D01*
X5456482Y15758498D01*
X5456484Y15758495D01*
X5565495Y15649484D01*
X5565497Y15649483D01*
X5568877Y15646103D01*
X5590551Y15593777D01*
X5568877Y15541451D01*
X5544870Y15525410D01*
X5448693Y15485572D01*
X5301283Y15387077D01*
X5301282Y15387075D01*
X5175925Y15261718D01*
X5175923Y15261717D01*
X5077427Y15114306D01*
X5009587Y14950525D01*
X5009584Y14950514D01*
X4982231Y14813001D01*
X4982232Y14813000D01*
X5600758Y14813000D01*
X5595444Y14803796D01*
X5575000Y14727496D01*
X5575000Y14648504D01*
X5595444Y14572204D01*
X5600758Y14563000D01*
X4982231Y14563000D01*
X3537768Y14563000D01*
X2919242Y14563000D01*
X2924556Y14572204D01*
X2945000Y14648504D01*
X2945000Y14727496D01*
X2924556Y14803796D01*
X2919242Y14813000D01*
X3537768Y14813000D01*
X3537768Y14813001D01*
X3510415Y14950514D01*
X3510412Y14950525D01*
X3442572Y15114306D01*
X3344076Y15261717D01*
X3218716Y15387077D01*
X3071304Y15485573D01*
X3071305Y15485573D01*
X2907524Y15553413D01*
X2907513Y15553416D01*
X2733641Y15588000D01*
X2370000Y15588000D01*
X2370000Y14988000D01*
X2120000Y14988000D01*
X2120000Y15588000D01*
X1756359Y15588000D01*
X1582486Y15553416D01*
X1582475Y15553413D01*
X1418694Y15485573D01*
X1271283Y15387077D01*
X1271282Y15387075D01*
X1145925Y15261718D01*
X1145923Y15261717D01*
X1047427Y15114306D01*
X979587Y14950525D01*
X979584Y14950514D01*
X952231Y14813001D01*
X952232Y14813000D01*
X1570758Y14813000D01*
X1565444Y14803796D01*
X1545000Y14727496D01*
X1545000Y14648504D01*
X1565444Y14572204D01*
X1570758Y14563000D01*
X952231Y14563000D01*
X300500Y14563000D01*
X300500Y16750000D01*
X13044867Y16750000D01*
X13063302Y16621777D01*
X13063302Y16621776D01*
X13063303Y16621774D01*
X13117118Y16503937D01*
X13201951Y16406033D01*
X13310931Y16335996D01*
X13435228Y16299500D01*
X13564772Y16299500D01*
X13689069Y16335996D01*
X13798049Y16406033D01*
X13844074Y16459151D01*
X13894721Y16484501D01*
X13948460Y16466616D01*
X13955922Y16459154D01*
X14001951Y16406033D01*
X14110931Y16335996D01*
X14235228Y16299500D01*
X14364772Y16299500D01*
X14489069Y16335996D01*
X14598049Y16406033D01*
X14682882Y16503937D01*
X14736697Y16621774D01*
X14755133Y16750000D01*
X14736697Y16878226D01*
X14682882Y16996063D01*
X14628024Y17059374D01*
X15569854Y17059374D01*
X15588289Y16931151D01*
X15588289Y16931150D01*
X15588290Y16931148D01*
X15642105Y16813311D01*
X15726938Y16715407D01*
X15835918Y16645370D01*
X15960215Y16608874D01*
X16089759Y16608874D01*
X16214056Y16645370D01*
X16299062Y16700000D01*
X34485000Y16700000D01*
X34485000Y14800000D01*
X36575000Y14800000D01*
X36575000Y16700000D01*
X34485000Y16700000D01*
X16299062Y16700000D01*
X16323036Y16715407D01*
X16407869Y16813311D01*
X16461684Y16931148D01*
X16480120Y17059374D01*
X16461684Y17187600D01*
X16407869Y17305437D01*
X16323036Y17403341D01*
X16256019Y17446410D01*
X16214055Y17473379D01*
X16089759Y17509874D01*
X15960215Y17509874D01*
X15835918Y17473379D01*
X15726941Y17403343D01*
X15726937Y17403340D01*
X15642106Y17305439D01*
X15588289Y17187598D01*
X15569854Y17059374D01*
X14628024Y17059374D01*
X14598049Y17093967D01*
X14531032Y17137036D01*
X14489068Y17164005D01*
X14364772Y17200500D01*
X14235228Y17200500D01*
X14110931Y17164005D01*
X14001954Y17093969D01*
X14001951Y17093967D01*
X13971977Y17059374D01*
X13955926Y17040850D01*
X13905279Y17015499D01*
X13851540Y17033384D01*
X13844074Y17040850D01*
X13798049Y17093967D01*
X13731032Y17137036D01*
X13689068Y17164005D01*
X13564772Y17200500D01*
X13435228Y17200500D01*
X13310931Y17164005D01*
X13201954Y17093969D01*
X13201950Y17093966D01*
X13117119Y16996065D01*
X13063302Y16878224D01*
X13044867Y16750000D01*
X300500Y16750000D01*
X300500Y17646683D01*
X26932034Y17646683D01*
X26950469Y17518460D01*
X26950469Y17518459D01*
X26950470Y17518457D01*
X27004285Y17400620D01*
X27089118Y17302716D01*
X27198098Y17232679D01*
X27322395Y17196183D01*
X27451939Y17196183D01*
X27576236Y17232679D01*
X27685216Y17302716D01*
X27770049Y17400620D01*
X27823864Y17518457D01*
X27842300Y17646683D01*
X27823864Y17774909D01*
X27770049Y17892746D01*
X27685216Y17990650D01*
X27618199Y18033719D01*
X27576235Y18060688D01*
X27451939Y18097183D01*
X27322395Y18097183D01*
X27198098Y18060688D01*
X27089121Y17990652D01*
X27089117Y17990649D01*
X27004286Y17892748D01*
X26950469Y17774907D01*
X26932034Y17646683D01*
X300500Y17646683D01*
X300500Y18500000D01*
X17094867Y18500000D01*
X17113302Y18371777D01*
X17113302Y18371776D01*
X17113303Y18371774D01*
X17167118Y18253937D01*
X17251951Y18156033D01*
X17360931Y18085996D01*
X17485228Y18049500D01*
X17614772Y18049500D01*
X17739069Y18085996D01*
X17848049Y18156033D01*
X17932882Y18253937D01*
X17986697Y18371774D01*
X18005133Y18500000D01*
X17986697Y18628226D01*
X17932882Y18746063D01*
X17848049Y18843967D01*
X17781032Y18887036D01*
X17739068Y18914005D01*
X17614772Y18950500D01*
X17485228Y18950500D01*
X17360931Y18914005D01*
X17251954Y18843969D01*
X17251950Y18843966D01*
X17167119Y18746065D01*
X17113302Y18628224D01*
X17094867Y18500000D01*
X300500Y18500000D01*
X300500Y20180000D01*
X16364867Y20180000D01*
X16383302Y20051777D01*
X16383302Y20051776D01*
X16383303Y20051774D01*
X16437118Y19933937D01*
X16521951Y19836033D01*
X16630931Y19765996D01*
X16755228Y19729500D01*
X16884772Y19729500D01*
X17009069Y19765996D01*
X17118049Y19836033D01*
X17202882Y19933937D01*
X17256697Y20051774D01*
X17275133Y20180000D01*
X17256697Y20308226D01*
X17202882Y20426063D01*
X17118049Y20523967D01*
X17118044Y20523970D01*
X17114049Y20527432D01*
X17115277Y20528851D01*
X17086867Y20569770D01*
X17096923Y20625508D01*
X17143446Y20657809D01*
X17159176Y20659500D01*
X17184772Y20659500D01*
X17309069Y20695996D01*
X17418049Y20766033D01*
X17502882Y20863937D01*
X17556697Y20981774D01*
X17575133Y21110000D01*
X17556697Y21238226D01*
X17502882Y21356063D01*
X17418049Y21453967D01*
X17351032Y21497036D01*
X17309068Y21524005D01*
X17184772Y21560500D01*
X17055228Y21560500D01*
X16930931Y21524005D01*
X16821954Y21453969D01*
X16821950Y21453966D01*
X16737119Y21356065D01*
X16683302Y21238224D01*
X16664867Y21110000D01*
X16683302Y20981777D01*
X16683302Y20981776D01*
X16683303Y20981774D01*
X16737118Y20863937D01*
X16821951Y20766033D01*
X16821953Y20766032D01*
X16825951Y20762568D01*
X16824722Y20761150D01*
X16853133Y20720230D01*
X16843077Y20664492D01*
X16796554Y20632191D01*
X16780824Y20630500D01*
X16755228Y20630500D01*
X16630931Y20594005D01*
X16521954Y20523969D01*
X16521950Y20523966D01*
X16437119Y20426065D01*
X16383302Y20308224D01*
X16364867Y20180000D01*
X300500Y20180000D01*
X300500Y23203000D01*
X952231Y23203000D01*
X979584Y23065487D01*
X979587Y23065476D01*
X1047427Y22901695D01*
X1145923Y22754284D01*
X1271283Y22628924D01*
X1418695Y22530428D01*
X1418694Y22530428D01*
X1582475Y22462588D01*
X1582486Y22462585D01*
X1756359Y22428000D01*
X2120000Y22428000D01*
X2120000Y23028000D01*
X2370000Y23028000D01*
X2370000Y22428000D01*
X2733641Y22428000D01*
X2907513Y22462585D01*
X2907524Y22462588D01*
X3071305Y22530428D01*
X3218716Y22628924D01*
X3218718Y22628925D01*
X3344075Y22754282D01*
X3344076Y22754284D01*
X3442572Y22901695D01*
X3510412Y23065476D01*
X3510415Y23065487D01*
X3537768Y23203000D01*
X4982231Y23203000D01*
X5009584Y23065487D01*
X5009587Y23065476D01*
X5077427Y22901695D01*
X5175923Y22754284D01*
X5301283Y22628924D01*
X5448693Y22530429D01*
X5544870Y22490591D01*
X5584918Y22450543D01*
X5584918Y22393905D01*
X5568877Y22369898D01*
X5456481Y22257502D01*
X5379401Y22123996D01*
X5379399Y22123991D01*
X5339500Y21975086D01*
X5339500Y21820915D01*
X5379399Y21672010D01*
X5379401Y21672005D01*
X5456481Y21538499D01*
X5456482Y21538498D01*
X5456484Y21538495D01*
X5565495Y21429484D01*
X5699006Y21352401D01*
X5699007Y21352401D01*
X5699009Y21352400D01*
X5773461Y21332451D01*
X5847914Y21312501D01*
X5847915Y21312500D01*
X5847917Y21312500D01*
X6002085Y21312500D01*
X6002085Y21312501D01*
X6150994Y21352401D01*
X6158232Y21356580D01*
X7486209Y21356580D01*
X7504644Y21228357D01*
X7504644Y21228356D01*
X7504645Y21228354D01*
X7558460Y21110517D01*
X7643293Y21012613D01*
X7752273Y20942576D01*
X7876570Y20906080D01*
X8006114Y20906080D01*
X8130411Y20942576D01*
X8239391Y21012613D01*
X8324224Y21110517D01*
X8378039Y21228354D01*
X8396475Y21356580D01*
X8378039Y21484806D01*
X8324224Y21602643D01*
X8239391Y21700547D01*
X8172374Y21743616D01*
X8130410Y21770585D01*
X8006114Y21807080D01*
X7876570Y21807080D01*
X7752273Y21770585D01*
X7643296Y21700549D01*
X7643292Y21700546D01*
X7558461Y21602645D01*
X7504644Y21484804D01*
X7486209Y21356580D01*
X6158232Y21356580D01*
X6284505Y21429484D01*
X6393516Y21538495D01*
X6470599Y21672006D01*
X6510499Y21820915D01*
X6510500Y21820915D01*
X6510500Y21975085D01*
X6510499Y21975086D01*
X6509467Y21978936D01*
X6470599Y22123994D01*
X6412283Y22225000D01*
X10544867Y22225000D01*
X10563302Y22096777D01*
X10563302Y22096776D01*
X10563303Y22096774D01*
X10617118Y21978937D01*
X10701951Y21881033D01*
X10810931Y21810996D01*
X10935228Y21774500D01*
X11064772Y21774500D01*
X11189069Y21810996D01*
X11298049Y21881033D01*
X11382882Y21978937D01*
X11436697Y22096774D01*
X11455133Y22225000D01*
X11436697Y22353226D01*
X11382882Y22471063D01*
X11298049Y22568967D01*
X11204754Y22628924D01*
X11189068Y22639005D01*
X11064772Y22675500D01*
X10935228Y22675500D01*
X10810931Y22639005D01*
X10701954Y22568969D01*
X10701950Y22568966D01*
X10617119Y22471065D01*
X10617118Y22471064D01*
X10617118Y22471063D01*
X10597452Y22428000D01*
X10563302Y22353224D01*
X10544867Y22225000D01*
X6412283Y22225000D01*
X6393516Y22257505D01*
X6313836Y22337185D01*
X6292162Y22389511D01*
X6300000Y22408434D01*
X6300000Y23028000D01*
X6550000Y23028000D01*
X6550000Y22428000D01*
X7063641Y22428000D01*
X7237513Y22462585D01*
X7237524Y22462588D01*
X7401305Y22530428D01*
X7548716Y22628924D01*
X7548718Y22628925D01*
X7674075Y22754282D01*
X7674076Y22754284D01*
X7772572Y22901695D01*
X7840412Y23065476D01*
X7840415Y23065487D01*
X7867768Y23203000D01*
X7249242Y23203000D01*
X7254556Y23212204D01*
X7275000Y23288504D01*
X7275000Y23367496D01*
X7254556Y23443796D01*
X7249242Y23453000D01*
X7867768Y23453000D01*
X7867768Y23453001D01*
X7840415Y23590514D01*
X7840412Y23590525D01*
X7772572Y23754306D01*
X7674076Y23901717D01*
X7548716Y24027077D01*
X7401304Y24125573D01*
X7401305Y24125573D01*
X7237524Y24193413D01*
X7237513Y24193416D01*
X7063641Y24228000D01*
X6550000Y24228000D01*
X6550000Y23628000D01*
X6300000Y23628000D01*
X6300000Y24228000D01*
X5786359Y24228000D01*
X5612486Y24193416D01*
X5612475Y24193413D01*
X5448694Y24125573D01*
X5301283Y24027077D01*
X5301282Y24027075D01*
X5175925Y23901718D01*
X5175923Y23901717D01*
X5077427Y23754306D01*
X5009587Y23590525D01*
X5009584Y23590514D01*
X4982231Y23453001D01*
X4982232Y23453000D01*
X5600758Y23453000D01*
X5595444Y23443796D01*
X5575000Y23367496D01*
X5575000Y23288504D01*
X5595444Y23212204D01*
X5600758Y23203000D01*
X4982231Y23203000D01*
X3537768Y23203000D01*
X2919242Y23203000D01*
X2924556Y23212204D01*
X2945000Y23288504D01*
X2945000Y23367496D01*
X2924556Y23443796D01*
X2919242Y23453000D01*
X3537768Y23453000D01*
X3537768Y23453001D01*
X3510415Y23590514D01*
X3510412Y23590525D01*
X3442572Y23754306D01*
X3344076Y23901717D01*
X3218716Y24027077D01*
X3071304Y24125573D01*
X3071305Y24125573D01*
X2907524Y24193413D01*
X2907513Y24193416D01*
X2733641Y24228000D01*
X2370000Y24228000D01*
X2370000Y23628000D01*
X2120000Y23628000D01*
X2120000Y24228000D01*
X1756359Y24228000D01*
X1582486Y24193416D01*
X1582475Y24193413D01*
X1418694Y24125573D01*
X1271283Y24027077D01*
X1271282Y24027075D01*
X1145925Y23901718D01*
X1145923Y23901717D01*
X1047427Y23754306D01*
X979587Y23590525D01*
X979584Y23590514D01*
X952231Y23453001D01*
X952232Y23453000D01*
X1570758Y23453000D01*
X1565444Y23443796D01*
X1545000Y23367496D01*
X1545000Y23288504D01*
X1565444Y23212204D01*
X1570758Y23203000D01*
X952231Y23203000D01*
X300500Y23203000D01*
X300500Y27000000D01*
X695065Y27000000D01*
X714785Y26699139D01*
X773605Y26403435D01*
X870519Y26117937D01*
X1003867Y25847534D01*
X1003873Y25847523D01*
X1171370Y25596847D01*
X1287569Y25464348D01*
X2138097Y26314877D01*
X2160967Y26283398D01*
X2283398Y26160967D01*
X2314874Y26138099D01*
X1464346Y25287571D01*
X1596846Y25171371D01*
X1847522Y25003874D01*
X1847533Y25003868D01*
X2117936Y24870520D01*
X2403434Y24773606D01*
X2699138Y24714786D01*
X3000000Y24695066D01*
X3300861Y24714786D01*
X3596565Y24773606D01*
X3882063Y24870520D01*
X4152466Y25003868D01*
X4152477Y25003874D01*
X4403153Y25171371D01*
X4535652Y25287571D01*
X3685125Y26138098D01*
X3716602Y26160967D01*
X3839033Y26283398D01*
X3861902Y26314875D01*
X4712429Y25464348D01*
X4828629Y25596847D01*
X4996126Y25847523D01*
X4996132Y25847534D01*
X5129480Y26117937D01*
X5226394Y26403435D01*
X5285214Y26699139D01*
X5304934Y27000000D01*
X32695065Y27000000D01*
X32714785Y26699139D01*
X32773605Y26403435D01*
X32870519Y26117937D01*
X33003867Y25847534D01*
X33003873Y25847523D01*
X33171370Y25596847D01*
X33287569Y25464348D01*
X34138097Y26314877D01*
X34160967Y26283398D01*
X34283398Y26160967D01*
X34314874Y26138099D01*
X33464346Y25287571D01*
X33596846Y25171371D01*
X33847522Y25003874D01*
X33847533Y25003868D01*
X34117936Y24870520D01*
X34403434Y24773606D01*
X34699138Y24714786D01*
X35000000Y24695066D01*
X35300861Y24714786D01*
X35596565Y24773606D01*
X35882063Y24870520D01*
X36152466Y25003868D01*
X36152477Y25003874D01*
X36403153Y25171371D01*
X36535652Y25287571D01*
X35685125Y26138098D01*
X35716602Y26160967D01*
X35839033Y26283398D01*
X35861902Y26314875D01*
X36712429Y25464348D01*
X36828629Y25596847D01*
X36996126Y25847523D01*
X36996132Y25847534D01*
X37129480Y26117937D01*
X37226394Y26403435D01*
X37285214Y26699139D01*
X37304934Y27000000D01*
X37285214Y27300862D01*
X37226394Y27596566D01*
X37129480Y27882064D01*
X36996132Y28152466D01*
X36996126Y28152477D01*
X36828629Y28403154D01*
X36712429Y28535654D01*
X35861901Y27685126D01*
X35839033Y27716602D01*
X35716602Y27839033D01*
X35685123Y27861903D01*
X36535652Y28712431D01*
X36403153Y28828630D01*
X36152477Y28996127D01*
X36152466Y28996133D01*
X35882063Y29129481D01*
X35596565Y29226395D01*
X35300861Y29285215D01*
X35000000Y29304935D01*
X34699138Y29285215D01*
X34403434Y29226395D01*
X34117936Y29129481D01*
X33847534Y28996133D01*
X33847523Y28996127D01*
X33596847Y28828631D01*
X33596836Y28828622D01*
X33464346Y28712431D01*
X34314874Y27861903D01*
X34283398Y27839033D01*
X34160967Y27716602D01*
X34138097Y27685126D01*
X33287569Y28535654D01*
X33171378Y28403164D01*
X33171369Y28403153D01*
X33003873Y28152477D01*
X33003867Y28152466D01*
X32870519Y27882064D01*
X32773605Y27596566D01*
X32714785Y27300862D01*
X32695065Y27000000D01*
X5304934Y27000000D01*
X5285214Y27300862D01*
X5226394Y27596566D01*
X5129480Y27882064D01*
X4996132Y28152466D01*
X4996126Y28152477D01*
X4828629Y28403154D01*
X4712429Y28535654D01*
X3861901Y27685126D01*
X3839033Y27716602D01*
X3716602Y27839033D01*
X3685123Y27861903D01*
X4535652Y28712431D01*
X4403153Y28828630D01*
X4152477Y28996127D01*
X4152466Y28996133D01*
X3882063Y29129481D01*
X3596565Y29226395D01*
X3300861Y29285215D01*
X3000000Y29304935D01*
X2699138Y29285215D01*
X2403434Y29226395D01*
X2117936Y29129481D01*
X1847534Y28996133D01*
X1847523Y28996127D01*
X1596847Y28828631D01*
X1596836Y28828622D01*
X1464346Y28712431D01*
X2314874Y27861903D01*
X2283398Y27839033D01*
X2160967Y27716602D01*
X2138097Y27685126D01*
X1287569Y28535654D01*
X1171378Y28403164D01*
X1171369Y28403153D01*
X1003873Y28152477D01*
X1003867Y28152466D01*
X870519Y27882064D01*
X773605Y27596566D01*
X714785Y27300862D01*
X695065Y27000000D01*
X300500Y27000000D01*
X300500Y27997364D01*
X300689Y28002643D01*
X317420Y28236581D01*
X318922Y28247032D01*
X368220Y28473650D01*
X371187Y28483754D01*
X452232Y28701045D01*
X456610Y28710633D01*
X567757Y28914181D01*
X573461Y28923055D01*
X712432Y29108699D01*
X719339Y29116672D01*
X883328Y29280661D01*
X891301Y29287568D01*
X1076945Y29426539D01*
X1085819Y29432243D01*
X1289367Y29543390D01*
X1298955Y29547768D01*
X1516246Y29628813D01*
X1526350Y29631780D01*
X1752971Y29681079D01*
X1763416Y29682580D01*
X1997357Y29699312D01*
X2002636Y29699500D01*
X2047595Y29699500D01*
X35952405Y29699500D01*
X35997364Y29699500D01*
X36002642Y29699312D01*
G37*
%TD.AperFunction*%
%TD*%
M02*
