%TF.GenerationSoftware,KiCad,Pcbnew,8.0.1*%
%TF.CreationDate,2024-04-24T20:58:42-04:00*%
%TF.ProjectId,Bluephil,426c7565-7068-4696-9c2e-6b696361645f,rev?*%
%TF.SameCoordinates,PX95ba140PY6dac2c0*%
%TF.FileFunction,Paste,Top*%
%TF.FilePolarity,Positive*%
%FSLAX46Y46*%
G04 Gerber Fmt 4.6, Leading zero omitted, Abs format (unit mm)*
G04 Created by KiCad (PCBNEW 8.0.1) date 2024-04-24 20:58:42*
%MOMM*%
%LPD*%
G01*
G04 APERTURE LIST*
G04 Aperture macros list*
%AMRoundRect*
0 Rectangle with rounded corners*
0 $1 Rounding radius*
0 $2 $3 $4 $5 $6 $7 $8 $9 X,Y pos of 4 corners*
0 Add a 4 corners polygon primitive as box body*
4,1,4,$2,$3,$4,$5,$6,$7,$8,$9,$2,$3,0*
0 Add four circle primitives for the rounded corners*
1,1,$1+$1,$2,$3*
1,1,$1+$1,$4,$5*
1,1,$1+$1,$6,$7*
1,1,$1+$1,$8,$9*
0 Add four rect primitives between the rounded corners*
20,1,$1+$1,$2,$3,$4,$5,0*
20,1,$1+$1,$4,$5,$6,$7,0*
20,1,$1+$1,$6,$7,$8,$9,0*
20,1,$1+$1,$8,$9,$2,$3,0*%
G04 Aperture macros list end*
%ADD10O,1.800000X1.000000*%
%ADD11O,2.100000X1.000000*%
%ADD12RoundRect,0.150000X-0.375000X0.150000X-0.375000X-0.150000X0.375000X-0.150000X0.375000X0.150000X0*%
%ADD13RoundRect,0.075000X-0.500000X0.075000X-0.500000X-0.075000X0.500000X-0.075000X0.500000X0.075000X0*%
%ADD14RoundRect,0.135000X0.185000X-0.135000X0.185000X0.135000X-0.185000X0.135000X-0.185000X-0.135000X0*%
%ADD15RoundRect,0.147500X-0.147500X-0.172500X0.147500X-0.172500X0.147500X0.172500X-0.147500X0.172500X0*%
%ADD16R,0.900000X1.000000*%
%ADD17R,0.800000X0.900000*%
%ADD18R,0.600000X1.100000*%
%ADD19RoundRect,0.250000X0.315000X-0.315000X0.315000X0.315000X-0.315000X0.315000X-0.315000X-0.315000X0*%
%ADD20RoundRect,0.062500X0.062500X-0.375000X0.062500X0.375000X-0.062500X0.375000X-0.062500X-0.375000X0*%
%ADD21RoundRect,0.062500X0.375000X-0.062500X0.375000X0.062500X-0.375000X0.062500X-0.375000X-0.062500X0*%
%ADD22RoundRect,0.150000X-0.512500X-0.150000X0.512500X-0.150000X0.512500X0.150000X-0.512500X0.150000X0*%
%ADD23RoundRect,0.135000X0.135000X0.185000X-0.135000X0.185000X-0.135000X-0.185000X0.135000X-0.185000X0*%
%ADD24RoundRect,0.135000X-0.135000X-0.185000X0.135000X-0.185000X0.135000X0.185000X-0.135000X0.185000X0*%
%ADD25RoundRect,0.218750X-0.218750X-0.381250X0.218750X-0.381250X0.218750X0.381250X-0.218750X0.381250X0*%
%ADD26RoundRect,0.147500X0.172500X-0.147500X0.172500X0.147500X-0.172500X0.147500X-0.172500X-0.147500X0*%
%ADD27RoundRect,0.250000X-0.275000X-0.250000X0.275000X-0.250000X0.275000X0.250000X-0.275000X0.250000X0*%
%ADD28RoundRect,0.250000X-0.850000X-0.275000X0.850000X-0.275000X0.850000X0.275000X-0.850000X0.275000X0*%
%ADD29RoundRect,0.068750X-0.068750X-0.281250X0.068750X-0.281250X0.068750X0.281250X-0.068750X0.281250X0*%
%ADD30RoundRect,0.061250X-0.163750X-0.061250X0.163750X-0.061250X0.163750X0.061250X-0.163750X0.061250X0*%
%ADD31RoundRect,0.140000X0.140000X0.170000X-0.140000X0.170000X-0.140000X-0.170000X0.140000X-0.170000X0*%
%ADD32RoundRect,0.135000X-0.185000X0.135000X-0.185000X-0.135000X0.185000X-0.135000X0.185000X0.135000X0*%
%ADD33RoundRect,0.200000X-0.200000X-0.275000X0.200000X-0.275000X0.200000X0.275000X-0.200000X0.275000X0*%
%ADD34RoundRect,0.140000X-0.170000X0.140000X-0.170000X-0.140000X0.170000X-0.140000X0.170000X0.140000X0*%
%ADD35RoundRect,0.140000X0.170000X-0.140000X0.170000X0.140000X-0.170000X0.140000X-0.170000X-0.140000X0*%
%ADD36RoundRect,0.200000X0.275000X-0.200000X0.275000X0.200000X-0.275000X0.200000X-0.275000X-0.200000X0*%
%ADD37RoundRect,0.200000X-0.275000X0.200000X-0.275000X-0.200000X0.275000X-0.200000X0.275000X0.200000X0*%
G04 APERTURE END LIST*
D10*
%TO.C,J1*%
X2245000Y14688000D03*
D11*
X6425000Y14688000D03*
D10*
X2245000Y23328000D03*
D11*
X6425000Y23328000D03*
D12*
X7050000Y22208000D03*
X7050000Y21408000D03*
D13*
X7000000Y20758000D03*
X7000000Y19758000D03*
X7000000Y18258000D03*
X7000000Y17258000D03*
D12*
X7050000Y16608000D03*
X7050000Y15808000D03*
X7050000Y15808000D03*
X7050000Y16608000D03*
D13*
X7000000Y17758000D03*
X7000000Y18758000D03*
X7000000Y19258000D03*
X7000000Y20258000D03*
D12*
X7050000Y21408000D03*
X7050000Y22208000D03*
%TD*%
D14*
%TO.C,R3*%
X10000000Y21240000D03*
X10000000Y22260000D03*
%TD*%
D15*
%TO.C,D2*%
X9250000Y23500000D03*
X10220000Y23500000D03*
%TD*%
D16*
%TO.C,SW1*%
X11950000Y23300000D03*
X16050000Y23300000D03*
X11950000Y21700000D03*
X16050000Y21700000D03*
%TD*%
D17*
%TO.C,X2*%
X27500000Y19300000D03*
X27500000Y20700000D03*
X26400000Y20700000D03*
X26400000Y19300000D03*
%TD*%
D18*
%TO.C,X1*%
X19950000Y7245000D03*
X18550000Y7245000D03*
%TD*%
D19*
%TO.C,U2*%
X19150000Y12337500D03*
X20550000Y12337500D03*
X21950000Y12337500D03*
X23350000Y12337500D03*
X19150000Y13737500D03*
X20550000Y13737500D03*
X21950000Y13737500D03*
X23350000Y13737500D03*
X19150000Y15137500D03*
X20550000Y15137500D03*
X21950000Y15137500D03*
X23350000Y15137500D03*
X19150000Y16537500D03*
X20550000Y16537500D03*
X21950000Y16537500D03*
X23350000Y16537500D03*
D20*
X18500000Y11000000D03*
X19000000Y11000000D03*
X19500000Y11000000D03*
X20000000Y11000000D03*
X20500000Y11000000D03*
X21000000Y11000000D03*
X21500000Y11000000D03*
X22000000Y11000000D03*
X22500000Y11000000D03*
X23000000Y11000000D03*
X23500000Y11000000D03*
X24000000Y11000000D03*
D21*
X24687500Y11687500D03*
X24687500Y12187500D03*
X24687500Y12687500D03*
X24687500Y13187500D03*
X24687500Y13687500D03*
X24687500Y14187500D03*
X24687500Y14687500D03*
X24687500Y15187500D03*
X24687500Y15687500D03*
X24687500Y16187500D03*
X24687500Y16687500D03*
X24687500Y17187500D03*
D20*
X24000000Y17875000D03*
X23500000Y17875000D03*
X23000000Y17875000D03*
X22500000Y17875000D03*
X22000000Y17875000D03*
X21500000Y17875000D03*
X21000000Y17875000D03*
X20500000Y17875000D03*
X20000000Y17875000D03*
X19500000Y17875000D03*
X19000000Y17875000D03*
X18500000Y17875000D03*
D21*
X17812500Y17187500D03*
X17812500Y16687500D03*
X17812500Y16187500D03*
X17812500Y15687500D03*
X17812500Y15187500D03*
X17812500Y14687500D03*
X17812500Y14187500D03*
X17812500Y13687500D03*
X17812500Y13187500D03*
X17812500Y12687500D03*
X17812500Y12187500D03*
X17812500Y11687500D03*
%TD*%
D22*
%TO.C,D1*%
X9762500Y19950000D03*
X9762500Y19000000D03*
X9762500Y18050000D03*
X12037500Y18050000D03*
X12037500Y19000000D03*
X12037500Y19950000D03*
%TD*%
%TO.C,U1*%
X13850000Y15900000D03*
X13850000Y14000000D03*
X11575000Y14000000D03*
X11575000Y14950000D03*
X11575000Y15900000D03*
%TD*%
D23*
%TO.C,R8*%
X16742500Y7680000D03*
X15722500Y7680000D03*
%TD*%
%TO.C,R7*%
X16740000Y6630000D03*
X15720000Y6630000D03*
%TD*%
D24*
%TO.C,R6*%
X25465000Y6625000D03*
X26485000Y6625000D03*
%TD*%
D14*
%TO.C,R5*%
X25125000Y9785000D03*
X25125000Y8765000D03*
%TD*%
%TO.C,R4*%
X24125000Y9785000D03*
X24125000Y8765000D03*
%TD*%
%TO.C,R2*%
X8820000Y21250000D03*
X8820000Y22270000D03*
%TD*%
D24*
%TO.C,R1*%
X8740000Y16750000D03*
X9760000Y16750000D03*
%TD*%
D15*
%TO.C,L3*%
X28230000Y15750000D03*
X29200000Y15750000D03*
%TD*%
D25*
%TO.C,L2*%
X19937500Y21750000D03*
X22062500Y21750000D03*
%TD*%
D26*
%TO.C,L1*%
X20000000Y19250000D03*
X20000000Y20220000D03*
%TD*%
D27*
%TO.C,J4*%
X33950000Y15750000D03*
D28*
X35475000Y17225000D03*
X35475000Y14275000D03*
%TD*%
D29*
%TO.C,FLT1*%
X31400000Y15750000D03*
D30*
X32012500Y15522500D03*
D29*
X32625000Y15750000D03*
D30*
X32012500Y15977500D03*
%TD*%
D15*
%TO.C,D3*%
X27780000Y6625000D03*
X28750000Y6625000D03*
%TD*%
D31*
%TO.C,C19*%
X16750000Y8750000D03*
X15790000Y8750000D03*
%TD*%
D32*
%TO.C,C18*%
X30200000Y15750000D03*
X30200000Y14730000D03*
%TD*%
%TO.C,C17*%
X27200000Y14750000D03*
X27200000Y15770000D03*
%TD*%
D33*
%TO.C,C16*%
X21175000Y19500000D03*
X22825000Y19500000D03*
%TD*%
D34*
%TO.C,C15*%
X21650000Y7680000D03*
X21650000Y6720000D03*
%TD*%
D23*
%TO.C,C14*%
X18760000Y8745000D03*
X17740000Y8745000D03*
%TD*%
D24*
%TO.C,C13*%
X19740000Y8745000D03*
X20760000Y8745000D03*
%TD*%
D34*
%TO.C,C12*%
X26150000Y17480000D03*
X26150000Y16520000D03*
%TD*%
%TO.C,C11*%
X22550000Y9730000D03*
X22550000Y8770000D03*
%TD*%
D35*
%TO.C,C10*%
X19000000Y19270000D03*
X19000000Y20230000D03*
%TD*%
D31*
%TO.C,C9*%
X16730000Y9750000D03*
X15770000Y9750000D03*
%TD*%
D36*
%TO.C,C8*%
X17750000Y20425000D03*
X17750000Y22075000D03*
%TD*%
D34*
%TO.C,C7*%
X16500000Y11730000D03*
X16500000Y10770000D03*
%TD*%
D31*
%TO.C,C6*%
X16205000Y16200000D03*
X15245000Y16200000D03*
%TD*%
D34*
%TO.C,C5*%
X26000000Y14980000D03*
X26000000Y14020000D03*
%TD*%
D31*
%TO.C,C4*%
X17980000Y19250000D03*
X17020000Y19250000D03*
%TD*%
D37*
%TO.C,C3*%
X15625000Y13375000D03*
X15625000Y15025000D03*
%TD*%
%TO.C,C2*%
X26700000Y10500000D03*
X26700000Y8850000D03*
%TD*%
%TO.C,C1*%
X9300000Y13925000D03*
X9300000Y15575000D03*
%TD*%
M02*
