M48
; DRILL file {KiCad 8.0.1} date 2024-04-24T20:52:52-0400
; FORMAT={-:-/ absolute / metric / decimal}
; #@! TF.CreationDate,2024-04-24T20:52:52-04:00
; #@! TF.GenerationSoftware,Kicad,Pcbnew,8.0.1
; #@! TF.FileFunction,Plated,1,4,PTH
FMAT,2
METRIC
; #@! TA.AperFunction,Plated,PTH,ViaDrill
T1C0.300
; #@! TA.AperFunction,Plated,PTH,ComponentDrill
T2C0.500
; #@! TA.AperFunction,Plated,PTH,ComponentDrill
T3C0.600
; #@! TA.AperFunction,Plated,PTH,ComponentDrill
T4C2.200
%
G90
G05
T1
X7.941Y21.357
X8.05Y22.25
X8.2Y16.0
X8.6Y18.975
X8.65Y5.45
X8.75Y12.9
X9.95Y12.9
X10.4Y14.95
X10.5Y12.0
X10.6Y16.75
X10.8Y21.25
X11.0Y22.225
X12.5Y12.5
X12.75Y14.95
X13.5Y16.75
X13.5Y12.5
X13.644Y15.052
X14.3Y16.75
X14.35Y5.718
X14.425Y15.05
X14.949Y9.466
X14.95Y8.4
X15.06Y5.09
X15.14Y17.4
X15.7Y10.75
X15.7Y5.8
X16.025Y17.059
X16.2Y19.25
X16.647Y14.351
X16.65Y13.449
X16.65Y15.251
X16.7Y5.75
X16.753Y12.555
X16.82Y20.18
X17.12Y21.11
X17.3Y23.05
X17.4Y11.0
X17.5Y9.85
X17.55Y18.5
X17.62Y7.72
X18.25Y23.05
X19.0Y21.05
X19.15Y16.65
X19.2Y14.45
X19.2Y12.35
X20.1Y15.75
X20.1Y13.3
X20.25Y9.8
X21.215Y9.45
X21.25Y16.75
X21.3Y12.25
X22.5Y15.75
X22.5Y13.4
X22.55Y7.95
X23.4Y14.5
X23.45Y12.4
X23.5Y16.65
X23.63Y7.97
X23.75Y20.1
X23.75Y19.0
X24.665Y6.625
X25.45Y18.8
X26.0Y13.2
X26.0Y7.875
X26.25Y11.425
X26.9Y13.9
X27.2Y11.425
X27.22Y16.71
X27.3Y7.875
X27.387Y17.647
X28.0Y14.75
X28.3Y21.45
X29.45Y14.75
X32.0Y16.6
X32.0Y14.9
X34.35Y13.3
X34.4Y18.25
X35.55Y18.25
X35.55Y13.25
X36.65Y18.25
X36.8Y13.3
T2
X4.7Y11.375
X4.7Y10.125
X4.7Y8.875
X4.7Y7.625
T4
X3.0Y27.0
X3.0Y3.0
X35.0Y27.0
X35.0Y3.0
T3
G00X2.645Y23.328
M15
G01X1.845Y23.328
M16
G05
G00X2.645Y14.688
M15
G01X1.845Y14.688
M16
G05
G00X6.975Y23.328
M15
G01X5.875Y23.328
M16
G05
G00X6.975Y14.688
M15
G01X5.875Y14.688
M16
G05
M30
