%TF.GenerationSoftware,KiCad,Pcbnew,8.0.1*%
%TF.CreationDate,2024-04-24T20:58:42-04:00*%
%TF.ProjectId,Bluephil,426c7565-7068-4696-9c2e-6b696361645f,rev?*%
%TF.SameCoordinates,PX95ba140PY6dac2c0*%
%TF.FileFunction,Copper,L1,Top*%
%TF.FilePolarity,Positive*%
%FSLAX46Y46*%
G04 Gerber Fmt 4.6, Leading zero omitted, Abs format (unit mm)*
G04 Created by KiCad (PCBNEW 8.0.1) date 2024-04-24 20:58:42*
%MOMM*%
%LPD*%
G01*
G04 APERTURE LIST*
G04 Aperture macros list*
%AMRoundRect*
0 Rectangle with rounded corners*
0 $1 Rounding radius*
0 $2 $3 $4 $5 $6 $7 $8 $9 X,Y pos of 4 corners*
0 Add a 4 corners polygon primitive as box body*
4,1,4,$2,$3,$4,$5,$6,$7,$8,$9,$2,$3,0*
0 Add four circle primitives for the rounded corners*
1,1,$1+$1,$2,$3*
1,1,$1+$1,$4,$5*
1,1,$1+$1,$6,$7*
1,1,$1+$1,$8,$9*
0 Add four rect primitives between the rounded corners*
20,1,$1+$1,$2,$3,$4,$5,0*
20,1,$1+$1,$4,$5,$6,$7,0*
20,1,$1+$1,$6,$7,$8,$9,0*
20,1,$1+$1,$8,$9,$2,$3,0*%
G04 Aperture macros list end*
%TA.AperFunction,ComponentPad*%
%ADD10O,1.800000X1.000000*%
%TD*%
%TA.AperFunction,ComponentPad*%
%ADD11O,2.100000X1.000000*%
%TD*%
%TA.AperFunction,SMDPad,CuDef*%
%ADD12RoundRect,0.150000X-0.375000X0.150000X-0.375000X-0.150000X0.375000X-0.150000X0.375000X0.150000X0*%
%TD*%
%TA.AperFunction,SMDPad,CuDef*%
%ADD13RoundRect,0.075000X-0.500000X0.075000X-0.500000X-0.075000X0.500000X-0.075000X0.500000X0.075000X0*%
%TD*%
%TA.AperFunction,ComponentPad*%
%ADD14C,3.800000*%
%TD*%
%TA.AperFunction,SMDPad,CuDef*%
%ADD15C,1.000000*%
%TD*%
%TA.AperFunction,SMDPad,CuDef*%
%ADD16RoundRect,0.135000X0.185000X-0.135000X0.185000X0.135000X-0.185000X0.135000X-0.185000X-0.135000X0*%
%TD*%
%TA.AperFunction,SMDPad,CuDef*%
%ADD17RoundRect,0.147500X-0.147500X-0.172500X0.147500X-0.172500X0.147500X0.172500X-0.147500X0.172500X0*%
%TD*%
%TA.AperFunction,SMDPad,CuDef*%
%ADD18R,0.900000X1.000000*%
%TD*%
%TA.AperFunction,SMDPad,CuDef*%
%ADD19R,0.800000X0.900000*%
%TD*%
%TA.AperFunction,SMDPad,CuDef*%
%ADD20R,0.600000X1.100000*%
%TD*%
%TA.AperFunction,SMDPad,CuDef*%
%ADD21RoundRect,0.062500X0.062500X-0.375000X0.062500X0.375000X-0.062500X0.375000X-0.062500X-0.375000X0*%
%TD*%
%TA.AperFunction,SMDPad,CuDef*%
%ADD22RoundRect,0.062500X0.375000X-0.062500X0.375000X0.062500X-0.375000X0.062500X-0.375000X-0.062500X0*%
%TD*%
%TA.AperFunction,HeatsinkPad*%
%ADD23R,5.600000X5.600000*%
%TD*%
%TA.AperFunction,SMDPad,CuDef*%
%ADD24RoundRect,0.150000X-0.512500X-0.150000X0.512500X-0.150000X0.512500X0.150000X-0.512500X0.150000X0*%
%TD*%
%TA.AperFunction,SMDPad,CuDef*%
%ADD25RoundRect,0.135000X0.135000X0.185000X-0.135000X0.185000X-0.135000X-0.185000X0.135000X-0.185000X0*%
%TD*%
%TA.AperFunction,SMDPad,CuDef*%
%ADD26RoundRect,0.135000X-0.135000X-0.185000X0.135000X-0.185000X0.135000X0.185000X-0.135000X0.185000X0*%
%TD*%
%TA.AperFunction,SMDPad,CuDef*%
%ADD27RoundRect,0.218750X-0.218750X-0.381250X0.218750X-0.381250X0.218750X0.381250X-0.218750X0.381250X0*%
%TD*%
%TA.AperFunction,SMDPad,CuDef*%
%ADD28RoundRect,0.147500X0.172500X-0.147500X0.172500X0.147500X-0.172500X0.147500X-0.172500X-0.147500X0*%
%TD*%
%TA.AperFunction,SMDPad,CuDef*%
%ADD29RoundRect,0.250000X-0.275000X-0.250000X0.275000X-0.250000X0.275000X0.250000X-0.275000X0.250000X0*%
%TD*%
%TA.AperFunction,SMDPad,CuDef*%
%ADD30RoundRect,0.250000X-0.850000X-0.275000X0.850000X-0.275000X0.850000X0.275000X-0.850000X0.275000X0*%
%TD*%
%TA.AperFunction,ComponentPad*%
%ADD31RoundRect,0.200000X-0.450000X0.200000X-0.450000X-0.200000X0.450000X-0.200000X0.450000X0.200000X0*%
%TD*%
%TA.AperFunction,ComponentPad*%
%ADD32O,1.300000X0.800000*%
%TD*%
%TA.AperFunction,ConnectorPad*%
%ADD33C,0.787400*%
%TD*%
%TA.AperFunction,SMDPad,CuDef*%
%ADD34RoundRect,0.068750X-0.068750X-0.281250X0.068750X-0.281250X0.068750X0.281250X-0.068750X0.281250X0*%
%TD*%
%TA.AperFunction,SMDPad,CuDef*%
%ADD35RoundRect,0.061250X-0.163750X-0.061250X0.163750X-0.061250X0.163750X0.061250X-0.163750X0.061250X0*%
%TD*%
%TA.AperFunction,SMDPad,CuDef*%
%ADD36RoundRect,0.140000X0.140000X0.170000X-0.140000X0.170000X-0.140000X-0.170000X0.140000X-0.170000X0*%
%TD*%
%TA.AperFunction,SMDPad,CuDef*%
%ADD37RoundRect,0.135000X-0.185000X0.135000X-0.185000X-0.135000X0.185000X-0.135000X0.185000X0.135000X0*%
%TD*%
%TA.AperFunction,SMDPad,CuDef*%
%ADD38RoundRect,0.200000X-0.200000X-0.275000X0.200000X-0.275000X0.200000X0.275000X-0.200000X0.275000X0*%
%TD*%
%TA.AperFunction,SMDPad,CuDef*%
%ADD39RoundRect,0.140000X-0.170000X0.140000X-0.170000X-0.140000X0.170000X-0.140000X0.170000X0.140000X0*%
%TD*%
%TA.AperFunction,SMDPad,CuDef*%
%ADD40RoundRect,0.140000X0.170000X-0.140000X0.170000X0.140000X-0.170000X0.140000X-0.170000X-0.140000X0*%
%TD*%
%TA.AperFunction,SMDPad,CuDef*%
%ADD41RoundRect,0.200000X0.275000X-0.200000X0.275000X0.200000X-0.275000X0.200000X-0.275000X-0.200000X0*%
%TD*%
%TA.AperFunction,SMDPad,CuDef*%
%ADD42RoundRect,0.200000X-0.275000X0.200000X-0.275000X-0.200000X0.275000X-0.200000X0.275000X0.200000X0*%
%TD*%
%TA.AperFunction,ViaPad*%
%ADD43C,0.700000*%
%TD*%
%TA.AperFunction,Conductor*%
%ADD44C,0.500000*%
%TD*%
%TA.AperFunction,Conductor*%
%ADD45C,0.170000*%
%TD*%
%TA.AperFunction,Conductor*%
%ADD46C,0.200000*%
%TD*%
%TA.AperFunction,Conductor*%
%ADD47C,0.250000*%
%TD*%
%TA.AperFunction,Conductor*%
%ADD48C,0.300000*%
%TD*%
G04 APERTURE END LIST*
D10*
%TO.P,J1,S1,SHIELD*%
%TO.N,GND*%
X2245000Y14688000D03*
D11*
X6425000Y14688000D03*
D10*
X2245000Y23328000D03*
D11*
X6425000Y23328000D03*
D12*
%TO.P,J1,B12,GND*%
X7050000Y22208000D03*
%TO.P,J1,B9,VBUS*%
%TO.N,+5V*%
X7050000Y21408000D03*
D13*
%TO.P,J1,B8,SBU2*%
%TO.N,unconnected-(J1-SBU2-PadB8)*%
X7000000Y20758000D03*
%TO.P,J1,B7,D-*%
%TO.N,/USBC_D-*%
X7000000Y19758000D03*
%TO.P,J1,B6,D+*%
%TO.N,/USBC_D+*%
X7000000Y18258000D03*
%TO.P,J1,B5,CC2*%
%TO.N,/USBC_CC2*%
X7000000Y17258000D03*
D12*
%TO.P,J1,B4,VBUS*%
%TO.N,+5V*%
X7050000Y16608000D03*
%TO.P,J1,B1,GND*%
%TO.N,GND*%
X7050000Y15808000D03*
%TO.P,J1,A12,GND*%
X7050000Y15808000D03*
%TO.P,J1,A9,VBUS*%
%TO.N,+5V*%
X7050000Y16608000D03*
D13*
%TO.P,J1,A8,SBU1*%
%TO.N,unconnected-(J1-SBU1-PadA8)*%
X7000000Y17758000D03*
%TO.P,J1,A7,D-*%
%TO.N,/USBC_D-*%
X7000000Y18758000D03*
%TO.P,J1,A6,D+*%
%TO.N,/USBC_D+*%
X7000000Y19258000D03*
%TO.P,J1,A5,CC1*%
%TO.N,/USBC_CC1*%
X7000000Y20258000D03*
D12*
%TO.P,J1,A4,VBUS*%
%TO.N,+5V*%
X7050000Y21408000D03*
%TO.P,J1,A1,GND*%
%TO.N,GND*%
X7050000Y22208000D03*
%TD*%
D14*
%TO.P,H4,1,1*%
%TO.N,GND*%
X35000000Y3000000D03*
%TD*%
%TO.P,H3,1,1*%
%TO.N,GND*%
X35000000Y27000000D03*
%TD*%
%TO.P,H2,1,1*%
%TO.N,GND*%
X3000000Y3000000D03*
%TD*%
%TO.P,H1,1,1*%
%TO.N,GND*%
X3000000Y27000000D03*
%TD*%
D15*
%TO.P,FM3,*%
%TO.N,*%
X31000000Y3000000D03*
%TD*%
%TO.P,FM2,*%
%TO.N,*%
X31000000Y27000000D03*
%TD*%
%TO.P,FM1,*%
%TO.N,*%
X7000000Y27000000D03*
%TD*%
D16*
%TO.P,R3,1*%
%TO.N,GND*%
X10000000Y21240000D03*
%TO.P,R3,2*%
%TO.N,Net-(D2-K)*%
X10000000Y22260000D03*
%TD*%
D17*
%TO.P,D2,1,K*%
%TO.N,Net-(D2-K)*%
X9250000Y23500000D03*
%TO.P,D2,2,A*%
%TO.N,+3.3V*%
X10220000Y23500000D03*
%TD*%
D18*
%TO.P,SW1,2,2*%
%TO.N,+3.3V*%
X11950000Y23300000D03*
X16050000Y23300000D03*
%TO.P,SW1,1,1*%
%TO.N,Net-(R8-Pad2)*%
X11950000Y21700000D03*
X16050000Y21700000D03*
%TD*%
D19*
%TO.P,X2,1,1*%
%TO.N,/HSE_OUT*%
X27500000Y19300000D03*
%TO.P,X2,2,2*%
%TO.N,GND*%
X27500000Y20700000D03*
%TO.P,X2,3,3*%
%TO.N,/HSE_IN*%
X26400000Y20700000D03*
%TO.P,X2,4,4*%
%TO.N,GND*%
X26400000Y19300000D03*
%TD*%
D20*
%TO.P,X1,1,1*%
%TO.N,/LSE_OUT*%
X19950000Y7245000D03*
%TO.P,X1,2,2*%
%TO.N,/LSE_IN*%
X18550000Y7245000D03*
%TD*%
D21*
%TO.P,U2,1,VBAT*%
%TO.N,+3.3V*%
X18500000Y11000000D03*
%TO.P,U2,2,PC14*%
%TO.N,/LSE_IN*%
X19000000Y11000000D03*
%TO.P,U2,3,PC15*%
%TO.N,/LSE_OUT*%
X19500000Y11000000D03*
%TO.P,U2,4,PH3*%
%TO.N,/BOOT0*%
X20000000Y11000000D03*
%TO.P,U2,5,PB8*%
%TO.N,unconnected-(U2-PB8-Pad5)*%
X20500000Y11000000D03*
%TO.P,U2,6,PB9*%
%TO.N,unconnected-(U2-PB9-Pad6)*%
X21000000Y11000000D03*
%TO.P,U2,7,NRST*%
%TO.N,/SWD_NRST*%
X21500000Y11000000D03*
%TO.P,U2,8,VDDA*%
%TO.N,+3.3V*%
X22000000Y11000000D03*
%TO.P,U2,9,PA0*%
%TO.N,unconnected-(U2-PA0-Pad9)*%
X22500000Y11000000D03*
%TO.P,U2,10,PA1*%
%TO.N,unconnected-(U2-PA1-Pad10)*%
X23000000Y11000000D03*
%TO.P,U2,11,PA2*%
%TO.N,/UART_TX*%
X23500000Y11000000D03*
%TO.P,U2,12,PA3*%
%TO.N,/UART_RX*%
X24000000Y11000000D03*
D22*
%TO.P,U2,13,PA4*%
%TO.N,unconnected-(U2-PA4-Pad13)*%
X24687500Y11687500D03*
%TO.P,U2,14,PA5*%
%TO.N,unconnected-(U2-PA5-Pad14)*%
X24687500Y12187500D03*
%TO.P,U2,15,PA6*%
%TO.N,unconnected-(U2-PA6-Pad15)*%
X24687500Y12687500D03*
%TO.P,U2,16,PA7*%
%TO.N,/LED_A*%
X24687500Y13187500D03*
%TO.P,U2,17,PA8*%
%TO.N,unconnected-(U2-PA8-Pad17)*%
X24687500Y13687500D03*
%TO.P,U2,18,PA9*%
%TO.N,unconnected-(U2-PA9-Pad18)*%
X24687500Y14187500D03*
%TO.P,U2,19,PB2*%
%TO.N,unconnected-(U2-PB2-Pad19)*%
X24687500Y14687500D03*
%TO.P,U2,20,VDD*%
%TO.N,+3.3V*%
X24687500Y15187500D03*
%TO.P,U2,21,RF1*%
%TO.N,/RF*%
X24687500Y15687500D03*
%TO.P,U2,22,VSSRF*%
%TO.N,GND*%
X24687500Y16187500D03*
%TO.P,U2,23,VDDRF*%
%TO.N,+3.3V*%
X24687500Y16687500D03*
%TO.P,U2,24,OSC_OUT*%
%TO.N,/HSE_OUT*%
X24687500Y17187500D03*
D21*
%TO.P,U2,25,OSC_IN*%
%TO.N,/HSE_IN*%
X24000000Y17875000D03*
%TO.P,U2,26,AT0*%
%TO.N,unconnected-(U2-AT0-Pad26)*%
X23500000Y17875000D03*
%TO.P,U2,27,AT1*%
%TO.N,unconnected-(U2-AT1-Pad27)*%
X23000000Y17875000D03*
%TO.P,U2,28,PB0*%
%TO.N,unconnected-(U2-PB0-Pad28)*%
X22500000Y17875000D03*
%TO.P,U2,29,PB1*%
%TO.N,unconnected-(U2-PB1-Pad29)*%
X22000000Y17875000D03*
%TO.P,U2,30,PE4*%
%TO.N,unconnected-(U2-PE4-Pad30)*%
X21500000Y17875000D03*
%TO.P,U2,31,VFBSMPS*%
%TO.N,/SMPSFB*%
X21000000Y17875000D03*
%TO.P,U2,32,VSSSMPS*%
%TO.N,GND*%
X20500000Y17875000D03*
%TO.P,U2,33,VLXSMPS*%
%TO.N,/SMPSLX*%
X20000000Y17875000D03*
%TO.P,U2,34,VDDSMPS*%
%TO.N,+3.3V*%
X19500000Y17875000D03*
%TO.P,U2,35,VDD*%
X19000000Y17875000D03*
%TO.P,U2,36,PA10*%
%TO.N,unconnected-(U2-PA10-Pad36)*%
X18500000Y17875000D03*
D22*
%TO.P,U2,37,PA11*%
%TO.N,/USB_D-*%
X17812500Y17187500D03*
%TO.P,U2,38,PA12*%
%TO.N,/USB_D+*%
X17812500Y16687500D03*
%TO.P,U2,39,PA13*%
%TO.N,/SWD_IO*%
X17812500Y16187500D03*
%TO.P,U2,40,VDDUSB*%
%TO.N,+3.3V*%
X17812500Y15687500D03*
%TO.P,U2,41,PA14*%
%TO.N,/SWD_CLK*%
X17812500Y15187500D03*
%TO.P,U2,42,PA15*%
%TO.N,unconnected-(U2-PA15-Pad42)*%
X17812500Y14687500D03*
%TO.P,U2,43,PB3*%
%TO.N,/SWD_SWO*%
X17812500Y14187500D03*
%TO.P,U2,44,PB4*%
%TO.N,unconnected-(U2-PB4-Pad44)*%
X17812500Y13687500D03*
%TO.P,U2,45,PB5*%
%TO.N,unconnected-(U2-PB5-Pad45)*%
X17812500Y13187500D03*
%TO.P,U2,46,PB6*%
%TO.N,unconnected-(U2-PB6-Pad46)*%
X17812500Y12687500D03*
%TO.P,U2,47,PB7*%
%TO.N,unconnected-(U2-PB7-Pad47)*%
X17812500Y12187500D03*
%TO.P,U2,48,VDD*%
%TO.N,+3.3V*%
X17812500Y11687500D03*
D23*
%TO.P,U2,49,VSS*%
%TO.N,GND*%
X21250000Y14437500D03*
%TD*%
D24*
%TO.P,D1,1,I/O1*%
%TO.N,/USBC_D-*%
X9762500Y19950000D03*
%TO.P,D1,2,GND*%
%TO.N,GND*%
X9762500Y19000000D03*
%TO.P,D1,3,I/O2*%
%TO.N,/USBC_D+*%
X9762500Y18050000D03*
%TO.P,D1,4,I/O2*%
%TO.N,/USB_D+*%
X12037500Y18050000D03*
%TO.P,D1,5,VBUS*%
%TO.N,+5V*%
X12037500Y19000000D03*
%TO.P,D1,6,I/O1*%
%TO.N,/USB_D-*%
X12037500Y19950000D03*
%TD*%
%TO.P,U1,5,VOUT*%
%TO.N,+3.3V*%
X13850000Y15900000D03*
%TO.P,U1,4,NC*%
%TO.N,unconnected-(U1-NC-Pad4)*%
X13850000Y14000000D03*
%TO.P,U1,3,EN*%
%TO.N,+5V*%
X11575000Y14000000D03*
%TO.P,U1,2,GND*%
%TO.N,GND*%
X11575000Y14950000D03*
%TO.P,U1,1,VIN*%
%TO.N,+5V*%
X11575000Y15900000D03*
%TD*%
D25*
%TO.P,R8,1*%
%TO.N,/BOOT0*%
X16742500Y7680000D03*
%TO.P,R8,2*%
%TO.N,Net-(R8-Pad2)*%
X15722500Y7680000D03*
%TD*%
%TO.P,R7,1*%
%TO.N,/BOOT0*%
X16740000Y6630000D03*
%TO.P,R7,2*%
%TO.N,GND*%
X15720000Y6630000D03*
%TD*%
D26*
%TO.P,R6,1*%
%TO.N,GND*%
X25465000Y6625000D03*
%TO.P,R6,2*%
%TO.N,Net-(D3-K)*%
X26485000Y6625000D03*
%TD*%
D16*
%TO.P,R5,2*%
%TO.N,/UART_RX*%
X25125000Y9785000D03*
%TO.P,R5,1*%
%TO.N,/UART_TXR*%
X25125000Y8765000D03*
%TD*%
%TO.P,R4,2*%
%TO.N,/UART_TX*%
X24125000Y9785000D03*
%TO.P,R4,1*%
%TO.N,/UART_TXC*%
X24125000Y8765000D03*
%TD*%
%TO.P,R2,1*%
%TO.N,/USBC_CC1*%
X8820000Y21250000D03*
%TO.P,R2,2*%
%TO.N,GND*%
X8820000Y22270000D03*
%TD*%
D26*
%TO.P,R1,1*%
%TO.N,/USBC_CC2*%
X8740000Y16750000D03*
%TO.P,R1,2*%
%TO.N,GND*%
X9760000Y16750000D03*
%TD*%
D17*
%TO.P,L3,1,1*%
%TO.N,/RF*%
X28230000Y15750000D03*
%TO.P,L3,2,2*%
%TO.N,/RF_MATCH*%
X29200000Y15750000D03*
%TD*%
D27*
%TO.P,L2,1,1*%
%TO.N,/SMPSLXL*%
X19937500Y21750000D03*
%TO.P,L2,2,2*%
%TO.N,/SMPSFB*%
X22062500Y21750000D03*
%TD*%
D28*
%TO.P,L1,1,1*%
%TO.N,/SMPSLX*%
X20000000Y19250000D03*
%TO.P,L1,2,2*%
%TO.N,/SMPSLXL*%
X20000000Y20220000D03*
%TD*%
D29*
%TO.P,J4,1,In*%
%TO.N,/RF_ANT*%
X33950000Y15750000D03*
D30*
%TO.P,J4,2,Ext*%
%TO.N,GND*%
X35475000Y17225000D03*
X35475000Y14275000D03*
%TD*%
D31*
%TO.P,J3,1,Pin_1*%
%TO.N,GND*%
X4700000Y11375000D03*
D32*
%TO.P,J3,2,Pin_2*%
%TO.N,/UART_TXR*%
X4700000Y10125000D03*
%TO.P,J3,3,Pin_3*%
%TO.N,/UART_TXC*%
X4700000Y8875000D03*
%TO.P,J3,4,Pin_4*%
%TO.N,+3.3V*%
X4700000Y7625000D03*
%TD*%
D33*
%TO.P,J2,1,VCC*%
%TO.N,+3.3V*%
X10155000Y9155000D03*
%TO.P,J2,2,SWDIO*%
%TO.N,/SWD_IO*%
X11425000Y9155000D03*
%TO.P,J2,3,~{RESET}*%
%TO.N,/SWD_NRST*%
X10155000Y7885000D03*
%TO.P,J2,4,SWCLK*%
%TO.N,/SWD_CLK*%
X11425000Y7885000D03*
%TO.P,J2,5,GND*%
%TO.N,GND*%
X10155000Y6615000D03*
%TO.P,J2,6,SWO*%
%TO.N,/SWD_SWO*%
X11425000Y6615000D03*
%TD*%
D34*
%TO.P,FLT1,1,IN*%
%TO.N,/RF_MATCH*%
X31400000Y15750000D03*
D35*
%TO.P,FLT1,2,GND*%
%TO.N,GND*%
X32012500Y15522500D03*
D34*
%TO.P,FLT1,3,OUT*%
%TO.N,/RF_ANT*%
X32625000Y15750000D03*
D35*
%TO.P,FLT1,4,GND*%
%TO.N,GND*%
X32012500Y15977500D03*
%TD*%
D17*
%TO.P,D3,1,K*%
%TO.N,Net-(D3-K)*%
X27780000Y6625000D03*
%TO.P,D3,2,A*%
%TO.N,/LED_A*%
X28750000Y6625000D03*
%TD*%
D36*
%TO.P,C19,1*%
%TO.N,/BOOT0*%
X16750000Y8750000D03*
%TO.P,C19,2*%
%TO.N,GND*%
X15790000Y8750000D03*
%TD*%
D37*
%TO.P,C18,1*%
%TO.N,/RF_MATCH*%
X30200000Y15750000D03*
%TO.P,C18,2*%
%TO.N,GND*%
X30200000Y14730000D03*
%TD*%
%TO.P,C17,2*%
%TO.N,GND*%
X27200000Y14750000D03*
%TO.P,C17,1*%
%TO.N,/RF*%
X27200000Y15770000D03*
%TD*%
D38*
%TO.P,C16,1*%
%TO.N,/SMPSFB*%
X21175000Y19500000D03*
%TO.P,C16,2*%
%TO.N,GND*%
X22825000Y19500000D03*
%TD*%
D39*
%TO.P,C15,1*%
%TO.N,/SWD_NRST*%
X21650000Y7680000D03*
%TO.P,C15,2*%
%TO.N,GND*%
X21650000Y6720000D03*
%TD*%
D25*
%TO.P,C14,1*%
%TO.N,/LSE_IN*%
X18760000Y8745000D03*
%TO.P,C14,2*%
%TO.N,GND*%
X17740000Y8745000D03*
%TD*%
D26*
%TO.P,C13,1*%
%TO.N,/LSE_OUT*%
X19740000Y8745000D03*
%TO.P,C13,2*%
%TO.N,GND*%
X20760000Y8745000D03*
%TD*%
D39*
%TO.P,C12,1*%
%TO.N,+3.3V*%
X26150000Y17480000D03*
%TO.P,C12,2*%
%TO.N,GND*%
X26150000Y16520000D03*
%TD*%
%TO.P,C11,1*%
%TO.N,+3.3V*%
X22550000Y9730000D03*
%TO.P,C11,2*%
%TO.N,GND*%
X22550000Y8770000D03*
%TD*%
D40*
%TO.P,C10,1*%
%TO.N,+3.3V*%
X19000000Y19270000D03*
%TO.P,C10,2*%
%TO.N,GND*%
X19000000Y20230000D03*
%TD*%
D36*
%TO.P,C9,1*%
%TO.N,+3.3V*%
X16730000Y9750000D03*
%TO.P,C9,2*%
%TO.N,GND*%
X15770000Y9750000D03*
%TD*%
D41*
%TO.P,C8,1*%
%TO.N,+3.3V*%
X17750000Y20425000D03*
%TO.P,C8,2*%
%TO.N,GND*%
X17750000Y22075000D03*
%TD*%
D39*
%TO.P,C7,1*%
%TO.N,+3.3V*%
X16500000Y11730000D03*
%TO.P,C7,2*%
%TO.N,GND*%
X16500000Y10770000D03*
%TD*%
D36*
%TO.P,C6,1*%
%TO.N,+3.3V*%
X16205000Y16200000D03*
%TO.P,C6,2*%
%TO.N,GND*%
X15245000Y16200000D03*
%TD*%
D39*
%TO.P,C5,1*%
%TO.N,+3.3V*%
X26000000Y14980000D03*
%TO.P,C5,2*%
%TO.N,GND*%
X26000000Y14020000D03*
%TD*%
D36*
%TO.P,C4,1*%
%TO.N,+3.3V*%
X17980000Y19250000D03*
%TO.P,C4,2*%
%TO.N,GND*%
X17020000Y19250000D03*
%TD*%
D42*
%TO.P,C3,2*%
%TO.N,GND*%
X15625000Y13375000D03*
%TO.P,C3,1*%
%TO.N,+3.3V*%
X15625000Y15025000D03*
%TD*%
%TO.P,C2,1*%
%TO.N,+3.3V*%
X26700000Y10500000D03*
%TO.P,C2,2*%
%TO.N,GND*%
X26700000Y8850000D03*
%TD*%
%TO.P,C1,2*%
%TO.N,GND*%
X9300000Y13925000D03*
%TO.P,C1,1*%
%TO.N,+5V*%
X9300000Y15575000D03*
%TD*%
D43*
%TO.N,GND*%
X13500000Y12500000D03*
%TO.N,+3.3V*%
X10500000Y12000000D03*
%TO.N,Net-(R8-Pad2)*%
X15060000Y5090000D03*
%TO.N,GND*%
X14950000Y8400000D03*
%TO.N,+5V*%
X8200000Y16000000D03*
X7941342Y21356580D03*
%TO.N,Net-(R8-Pad2)*%
X11000000Y22225000D03*
%TO.N,/SWD_IO*%
X12500000Y12500000D03*
%TO.N,/SWD_CLK*%
X14949164Y9466233D03*
%TO.N,/SWD_SWO*%
X14350000Y5717550D03*
X16649728Y13448970D03*
%TO.N,/SWD_CLK*%
X16650009Y15250739D03*
%TO.N,/SWD_IO*%
X16024987Y17059374D03*
%TO.N,/BOOT0*%
X16700000Y5750000D03*
X20250000Y9800000D03*
%TO.N,+3.3V*%
X17550000Y18500000D03*
X27200000Y11425000D03*
X26250000Y11425000D03*
X23630000Y7970000D03*
X17500000Y9850000D03*
X17400000Y11000000D03*
X14300000Y16750000D03*
X13500000Y16750000D03*
X13644182Y15052192D03*
X14425000Y15050000D03*
X16820000Y20180000D03*
X17120000Y21110000D03*
X27387167Y17646683D03*
X26900000Y13900000D03*
%TO.N,GND*%
X19200000Y12350000D03*
X23450000Y12400000D03*
X23500000Y16650000D03*
X19150000Y16650000D03*
X20100000Y15750000D03*
X22500000Y15750000D03*
X22500000Y13400000D03*
X20100000Y13300000D03*
X21300000Y12250000D03*
X21250000Y16750000D03*
X23400000Y14500000D03*
X19200000Y14450000D03*
X32000000Y14900000D03*
X32000000Y16600000D03*
X10400000Y14950000D03*
X12750000Y14950000D03*
X8600000Y18975000D03*
X18250000Y23050000D03*
X17300000Y23050000D03*
X23750000Y19000000D03*
X23750000Y20100000D03*
X25450000Y18800000D03*
X28300000Y21450000D03*
X36650000Y18250000D03*
X35550000Y18250000D03*
X34400000Y18250000D03*
X36800000Y13300000D03*
X35550000Y13250000D03*
X34350000Y13300000D03*
X27300000Y7875000D03*
X26000000Y7875000D03*
X16752927Y12554904D03*
X16647043Y14350741D03*
X9950000Y12900000D03*
X8750000Y12900000D03*
X8650000Y5450000D03*
X29450000Y14750000D03*
X28000000Y14750000D03*
X26000000Y13200000D03*
X27220000Y16710000D03*
X19000000Y21050000D03*
X16200000Y19250000D03*
X8050000Y22250000D03*
X10800000Y21250000D03*
X10600000Y16750000D03*
X15140000Y17400000D03*
X15700000Y10750000D03*
X15700000Y5800000D03*
X17620000Y7720000D03*
X21215000Y9450000D03*
X22550000Y7950000D03*
X24665000Y6625000D03*
%TD*%
D44*
%TO.N,+5V*%
X8200000Y16000000D02*
X8625000Y15575000D01*
X8625000Y15575000D02*
X9300000Y15575000D01*
X7050000Y16608000D02*
X7627684Y16608000D01*
X7627684Y16608000D02*
X8200000Y16035684D01*
X8200000Y16035684D02*
X8200000Y16000000D01*
%TO.N,GND*%
X7050000Y15808000D02*
X7050000Y15313000D01*
X7050000Y15313000D02*
X6425000Y14688000D01*
X7050000Y22208000D02*
X7050000Y22703000D01*
X7050000Y22703000D02*
X6425000Y23328000D01*
X8050000Y22250000D02*
X7092000Y22250000D01*
X7092000Y22250000D02*
X7050000Y22208000D01*
%TO.N,+5V*%
X7941342Y21356580D02*
X7889922Y21408000D01*
X7889922Y21408000D02*
X7050000Y21408000D01*
D45*
%TO.N,/USBC_CC2*%
X8740000Y16750000D02*
X8232000Y17258000D01*
X8232000Y17258000D02*
X7000000Y17258000D01*
D46*
%TO.N,/USBC_CC1*%
X7000000Y20258000D02*
X7812000Y20258000D01*
X7812000Y20258000D02*
X7820000Y20250000D01*
%TO.N,/USBC_D-*%
X7000000Y19758000D02*
X7607410Y19758000D01*
X7607410Y19758000D02*
X7875000Y19490410D01*
X7875000Y19490410D02*
X7875000Y19025590D01*
X7875000Y19025590D02*
X7607410Y18758000D01*
X7607410Y18758000D02*
X7000000Y18758000D01*
%TO.N,/USBC_D+*%
X7000000Y18258000D02*
X6392590Y18258000D01*
X6392590Y18258000D02*
X6125000Y18525590D01*
X6125000Y18525590D02*
X6125000Y18990410D01*
X6125000Y18990410D02*
X6392590Y19258000D01*
X6392590Y19258000D02*
X7000000Y19258000D01*
X9762500Y18050000D02*
X9554500Y18258000D01*
X9554500Y18258000D02*
X7000000Y18258000D01*
%TO.N,/USBC_D-*%
X9762500Y19950000D02*
X9570500Y19758000D01*
X9570500Y19758000D02*
X7000000Y19758000D01*
D45*
%TO.N,/LED_A*%
X24687500Y13187500D02*
X25124999Y13187500D01*
X25365000Y12947499D02*
X25365000Y12936974D01*
X25124999Y13187500D02*
X25365000Y12947499D01*
X25365000Y12936974D02*
X25851974Y12450000D01*
X25851974Y12450000D02*
X27075000Y12450000D01*
X27075000Y12450000D02*
X28750000Y10775000D01*
X28750000Y10775000D02*
X28750000Y6625000D01*
%TO.N,/SWD_IO*%
X11630300Y11630300D02*
X11630300Y9360300D01*
X12500000Y12500000D02*
X11630300Y11630300D01*
X11630300Y9360300D02*
X11425000Y9155000D01*
%TO.N,/RF_ANT*%
X32625000Y15750000D02*
X34125000Y15750000D01*
%TO.N,/RF_MATCH*%
X30200000Y15750000D02*
X31400000Y15750000D01*
D47*
%TO.N,GND*%
X24687500Y16187500D02*
X25817500Y16187500D01*
X25817500Y16187500D02*
X26150000Y16520000D01*
X24687500Y16187500D02*
X23000000Y16187500D01*
X23000000Y16187500D02*
X21250000Y14437500D01*
D44*
X8600000Y18975000D02*
X9737500Y18975000D01*
X9737500Y18975000D02*
X9762500Y19000000D01*
X17750000Y8745000D02*
X17750000Y7850000D01*
X17750000Y7850000D02*
X17620000Y7720000D01*
D48*
%TO.N,+3.3V*%
X16925000Y22425000D02*
X16050000Y23300000D01*
X17120000Y21110000D02*
X16925000Y21305000D01*
X16925000Y21305000D02*
X16925000Y22425000D01*
D45*
%TO.N,/SWD_IO*%
X17316142Y16187500D02*
X17812500Y16187500D01*
X16449168Y17059374D02*
X16690000Y16818542D01*
X16690000Y16818542D02*
X16690000Y16813642D01*
X16024987Y17059374D02*
X16449168Y17059374D01*
X16690000Y16813642D02*
X17316142Y16187500D01*
D44*
%TO.N,GND*%
X15225111Y17314889D02*
X15225111Y16569889D01*
X15225111Y16569889D02*
X15445000Y16350000D01*
X15140000Y17400000D02*
X15225111Y17314889D01*
X26200000Y16550000D02*
X27060000Y16550000D01*
X27060000Y16550000D02*
X27220000Y16710000D01*
%TO.N,+3.3V*%
X26090000Y17615000D02*
X25625000Y17150000D01*
X27387167Y17646683D02*
X27253287Y17646683D01*
X27221604Y17615000D02*
X26090000Y17615000D01*
X27253287Y17646683D02*
X27221604Y17615000D01*
D45*
%TO.N,Net-(R8-Pad2)*%
X15060000Y5090000D02*
X15065000Y5095000D01*
X15065000Y5095000D02*
X15065000Y6063026D01*
X15722500Y7680000D02*
X15330000Y7680000D01*
X15165000Y6163026D02*
X15065000Y6063026D01*
X15330000Y7680000D02*
X15165000Y7515000D01*
X15165000Y7515000D02*
X15165000Y6163026D01*
D44*
%TO.N,+3.3V*%
X23630000Y7970000D02*
X23355000Y8245000D01*
X23355000Y8245000D02*
X23355000Y9245000D01*
X23355000Y9245000D02*
X22870000Y9730000D01*
X22870000Y9730000D02*
X22550000Y9730000D01*
D45*
%TO.N,/UART_TXC*%
X24125000Y8765000D02*
X24410000Y8480000D01*
X24410000Y8480000D02*
X24410000Y7791286D01*
X23660000Y6353260D02*
X20826740Y3520000D01*
X24410000Y7791286D02*
X23660000Y7041286D01*
X3600000Y8275000D02*
X4200000Y8875000D01*
X4200000Y8875000D02*
X4700000Y8875000D01*
X23660000Y7041286D02*
X23660000Y6353260D01*
X20826740Y3520000D02*
X7430000Y3520000D01*
X7430000Y3520000D02*
X3600000Y7350000D01*
X3600000Y7350000D02*
X3600000Y8275000D01*
%TO.N,/UART_TXR*%
X25125000Y8765000D02*
X25125000Y7983026D01*
X25125000Y7983026D02*
X24030000Y6888026D01*
X3230000Y7196741D02*
X3230000Y8655000D01*
X24030000Y6200000D02*
X20980000Y3150000D01*
X20980000Y3150000D02*
X7276741Y3150000D01*
X24030000Y6888026D02*
X24030000Y6200000D01*
X7276741Y3150000D02*
X3230000Y7196741D01*
X3230000Y8655000D02*
X4700000Y10125000D01*
D48*
%TO.N,GND*%
X14950000Y8400000D02*
X15300000Y8750000D01*
X15300000Y8750000D02*
X15790000Y8750000D01*
D45*
%TO.N,+3.3V*%
X9949700Y9360300D02*
X10155000Y9155000D01*
X10500000Y12000000D02*
X9949700Y11449700D01*
X9949700Y11449700D02*
X9949700Y9360300D01*
D44*
%TO.N,GND*%
X8875000Y13925000D02*
X9300000Y13925000D01*
X8000000Y22200000D02*
X8050000Y22250000D01*
X9950000Y12900000D02*
X9950000Y13275000D01*
X9950000Y13275000D02*
X9300000Y13925000D01*
X8750000Y12900000D02*
X8750000Y13375000D01*
X8750000Y13375000D02*
X9300000Y13925000D01*
X11575000Y14950000D02*
X12750000Y14950000D01*
X11575000Y14950000D02*
X10400000Y14950000D01*
D45*
%TO.N,/SWD_NRST*%
X21650000Y7680000D02*
X17970000Y4000000D01*
X17970000Y4000000D02*
X9201974Y4000000D01*
X6717550Y6484424D02*
X6717550Y7884762D01*
X6717550Y7884762D02*
X7615238Y8782450D01*
X9201974Y4000000D02*
X6717550Y6484424D01*
X9257550Y8782450D02*
X10155000Y7885000D01*
X7615238Y8782450D02*
X9257550Y8782450D01*
%TO.N,/SWD_SWO*%
X12621814Y5717550D02*
X11724364Y6615000D01*
X14350000Y5717550D02*
X12621814Y5717550D01*
X11724364Y6615000D02*
X11425000Y6615000D01*
%TO.N,/SWD_CLK*%
X14949164Y9466233D02*
X14538445Y9466233D01*
X14538445Y9466233D02*
X13854662Y8782450D01*
X13854662Y8782450D02*
X12322450Y8782450D01*
X12322450Y8782450D02*
X11425000Y7885000D01*
D44*
%TO.N,+5V*%
X11575000Y15900000D02*
X11575000Y16997316D01*
X10925000Y17647316D02*
X10925000Y18549999D01*
X11375001Y19000000D02*
X12037500Y19000000D01*
X11575000Y16997316D02*
X10925000Y17647316D01*
X10925000Y18549999D02*
X11375001Y19000000D01*
D46*
%TO.N,/USBC_CC1*%
X7820000Y20250000D02*
X8820000Y21250000D01*
D45*
%TO.N,Net-(D3-K)*%
X26485000Y6625000D02*
X27515000Y6625000D01*
D46*
%TO.N,+5V*%
X11575000Y14000000D02*
X10430761Y14000000D01*
X9300000Y15130761D02*
X9300000Y15575000D01*
X10430761Y14000000D02*
X9300000Y15130761D01*
D44*
X9300000Y15575000D02*
X9625000Y15900000D01*
X9625000Y15900000D02*
X11575000Y15900000D01*
%TO.N,+3.3V*%
X10220000Y23500000D02*
X11000000Y23500000D01*
X11000000Y23500000D02*
X11050000Y23450000D01*
X12800000Y23300000D02*
X16050000Y23300000D01*
X11950000Y23300000D02*
X12800000Y23300000D01*
X11050000Y23450000D02*
X11800000Y23450000D01*
X11800000Y23450000D02*
X11950000Y23300000D01*
%TO.N,GND*%
X25450000Y18800000D02*
X25900000Y18800000D01*
X25900000Y18800000D02*
X26400000Y19300000D01*
X27500000Y20700000D02*
X27550000Y20700000D01*
X27550000Y20700000D02*
X28300000Y21450000D01*
X21650000Y6720000D02*
X21959999Y6720000D01*
X21959999Y6720000D02*
X22550000Y7310001D01*
X22550000Y7310001D02*
X22550000Y7950000D01*
X15790000Y8750000D02*
X15790000Y9730000D01*
X15790000Y9730000D02*
X15770000Y9750000D01*
X16250000Y12550000D02*
X16748023Y12550000D01*
X16748023Y12550000D02*
X16752927Y12554904D01*
X15625000Y13375000D02*
X15625000Y13625000D01*
X15625000Y13625000D02*
X16350741Y14350741D01*
X16350741Y14350741D02*
X16647043Y14350741D01*
X16250000Y12550000D02*
X15625000Y13175000D01*
X15625000Y13175000D02*
X15625000Y13375000D01*
D45*
%TO.N,/SWD_CLK*%
X16650009Y15250739D02*
X16713248Y15187500D01*
X16713248Y15187500D02*
X17812500Y15187500D01*
%TO.N,/SWD_SWO*%
X16649728Y13455400D02*
X17381828Y14187500D01*
X16649728Y13448970D02*
X16649728Y13455400D01*
X17381828Y14187500D02*
X17812500Y14187500D01*
%TO.N,/UART_RX*%
X24000000Y11000000D02*
X24000000Y10550000D01*
X24000000Y10550000D02*
X24210000Y10340000D01*
X24210000Y10340000D02*
X24935000Y10340000D01*
X24935000Y10340000D02*
X25125000Y10150000D01*
X25125000Y10150000D02*
X25125000Y9785000D01*
%TO.N,/UART_TX*%
X23500000Y11000000D02*
X23500000Y10410000D01*
X23500000Y10410000D02*
X24125000Y9785000D01*
D48*
%TO.N,+3.3V*%
X22550000Y9730000D02*
X22550000Y9825000D01*
X22550000Y9825000D02*
X22000000Y10375000D01*
D47*
X22000000Y11000000D02*
X22000000Y10375000D01*
D45*
%TO.N,/SWD_NRST*%
X21500000Y11000000D02*
X21500000Y10063026D01*
X21500000Y10063026D02*
X21850000Y9713026D01*
X21850000Y9713026D02*
X21850000Y9186974D01*
X21850000Y9186974D02*
X21650000Y8986974D01*
X21650000Y8986974D02*
X21650000Y7680000D01*
D47*
%TO.N,+3.3V*%
X25625000Y17137760D02*
X25625000Y17150000D01*
X25174740Y16687500D02*
X25625000Y17137760D01*
X24687500Y16687500D02*
X25174740Y16687500D01*
D48*
X26046846Y14980000D02*
X26450923Y14575923D01*
X26000000Y14980000D02*
X26046846Y14980000D01*
D47*
X26450923Y14575923D02*
X26450923Y14540567D01*
X26450923Y14540567D02*
X26635000Y14356490D01*
X26635000Y14356490D02*
X26635000Y14165000D01*
X26635000Y14165000D02*
X26900000Y13900000D01*
X24687500Y15187500D02*
X25312500Y15187500D01*
X25312500Y15187500D02*
X25325000Y15200000D01*
D48*
X25325000Y15200000D02*
X25780000Y15200000D01*
X25780000Y15200000D02*
X26000000Y14980000D01*
D45*
%TO.N,GND*%
X8650000Y5450000D02*
X9815000Y6615000D01*
X9815000Y6615000D02*
X10155000Y6615000D01*
%TO.N,Net-(R8-Pad2)*%
X11950000Y21700000D02*
X16050000Y21700000D01*
X11000000Y22225000D02*
X11425000Y22225000D01*
X11425000Y22225000D02*
X11950000Y21700000D01*
%TO.N,Net-(D2-K)*%
X9250000Y23500000D02*
X9250000Y23010000D01*
X9250000Y23010000D02*
X10000000Y22260000D01*
D46*
%TO.N,/USBC_D-*%
X9762500Y19950000D02*
X9562500Y19750000D01*
D45*
%TO.N,/USB_D+*%
X12037500Y18050000D02*
X13031251Y18050000D01*
X13031251Y18050000D02*
X13786251Y18805000D01*
X13786251Y18805000D02*
X14585755Y18805000D01*
%TO.N,/USB_D-*%
X14765000Y19195000D02*
X15350000Y18610000D01*
%TO.N,/USB_D+*%
X14585755Y18805000D02*
X15200755Y18190000D01*
X15200755Y18190000D02*
X15350000Y18190000D01*
%TO.N,/USB_D-*%
X13031251Y19950000D02*
X13786251Y19195000D01*
X13786251Y19195000D02*
X14765000Y19195000D01*
X12037500Y19950000D02*
X13031251Y19950000D01*
D46*
%TO.N,/USB_D+*%
X17320614Y16727500D02*
X17075000Y16973114D01*
X17812500Y16687500D02*
X17772500Y16727500D01*
X17075000Y16978014D02*
X15863014Y18190000D01*
X17772500Y16727500D02*
X17320614Y16727500D01*
X15863014Y18190000D02*
X15350000Y18190000D01*
X17075000Y16973114D02*
X17075000Y16978014D01*
%TO.N,/USB_D-*%
X17812500Y17187500D02*
X17772500Y17147500D01*
X17772500Y17147500D02*
X17499486Y17147500D01*
X17499486Y17147500D02*
X16036986Y18610000D01*
X16036986Y18610000D02*
X15350000Y18610000D01*
X17505699Y17162501D02*
X17787501Y17162501D01*
X17787501Y17162501D02*
X17812500Y17187500D01*
%TO.N,/USB_D+*%
X17787501Y16712499D02*
X17812500Y16687500D01*
D44*
%TO.N,GND*%
X15770000Y9750000D02*
X15770000Y10680000D01*
X15770000Y10680000D02*
X15700000Y10750000D01*
D47*
X20500000Y17875000D02*
X20500000Y15187500D01*
X20500000Y15187500D02*
X21250000Y14437500D01*
D44*
%TO.N,/SMPSFB*%
X22062500Y21750000D02*
X22050000Y21750000D01*
%TO.N,/SMPSLXL*%
X20000000Y20220000D02*
X20000000Y21687500D01*
X20000000Y21687500D02*
X19937500Y21750000D01*
D47*
%TO.N,/SMPSLX*%
X20000000Y17875000D02*
X20000000Y18600000D01*
D44*
X20000000Y18600000D02*
X20000000Y19250000D01*
D45*
%TO.N,/BOOT0*%
X16742500Y7680000D02*
X16742500Y8742500D01*
X16742500Y8742500D02*
X16750000Y8750000D01*
X16740000Y6630000D02*
X16740000Y7677500D01*
X16740000Y7677500D02*
X16742500Y7680000D01*
X16700000Y5750000D02*
X16700000Y6590000D01*
X16700000Y6590000D02*
X16740000Y6630000D01*
X20000000Y11000000D02*
X20000000Y10050000D01*
X20000000Y10050000D02*
X20250000Y9800000D01*
D44*
%TO.N,GND*%
X21215000Y9450000D02*
X20750000Y8985000D01*
X20750000Y8985000D02*
X20750000Y8745000D01*
D45*
%TO.N,/LSE_OUT*%
X19500000Y10745000D02*
X19500000Y8985000D01*
X19500000Y8985000D02*
X19740000Y8745000D01*
%TO.N,/LSE_IN*%
X19000000Y10745000D02*
X19000000Y8985000D01*
X19000000Y8985000D02*
X18760000Y8745000D01*
%TO.N,/LSE_OUT*%
X19740000Y8745000D02*
X19740000Y7455000D01*
X19740000Y7455000D02*
X19950000Y7245000D01*
%TO.N,/LSE_IN*%
X18760000Y8745000D02*
X18760000Y7455000D01*
X18760000Y7455000D02*
X18550000Y7245000D01*
%TO.N,/HSE_OUT*%
X24687500Y17187500D02*
X24687500Y17587500D01*
X24687500Y17587500D02*
X25250000Y18150000D01*
X25250000Y18150000D02*
X27000000Y18150000D01*
X27000000Y18150000D02*
X27500000Y18650000D01*
X27500000Y18650000D02*
X27500000Y19300000D01*
%TO.N,/HSE_IN*%
X24000000Y17875000D02*
X24425000Y17875000D01*
X24425000Y17875000D02*
X24815000Y18265000D01*
X25800000Y20700000D02*
X26400000Y20700000D01*
X24815000Y18265000D02*
X24815000Y19715000D01*
X24815000Y19715000D02*
X25800000Y20700000D01*
%TO.N,/RF_MATCH*%
X29200000Y15750000D02*
X30200000Y15750000D01*
%TO.N,/RF*%
X24687500Y15687500D02*
X28167500Y15687500D01*
X28167500Y15687500D02*
X28230000Y15750000D01*
D44*
%TO.N,GND*%
X30250000Y14750000D02*
X29450000Y14750000D01*
X27200000Y14750000D02*
X28000000Y14750000D01*
X26000000Y14000000D02*
X26000000Y13200000D01*
X19000000Y20250000D02*
X19000000Y21050000D01*
X17000000Y19250000D02*
X16200000Y19250000D01*
X8850000Y22250000D02*
X8050000Y22250000D01*
X10000000Y21250000D02*
X10800000Y21250000D01*
X9800000Y16750000D02*
X10600000Y16750000D01*
X16500000Y10750000D02*
X15700000Y10750000D01*
X15700000Y6600000D02*
X15700000Y5800000D01*
X22550000Y8750000D02*
X22550000Y7950000D01*
X25465000Y6625000D02*
X24665000Y6625000D01*
%TD*%
%TA.AperFunction,Conductor*%
%TO.N,/SMPSFB*%
G36*
X22515677Y22480315D02*
G01*
X22536319Y22463681D01*
X22663681Y22336319D01*
X22697166Y22274996D01*
X22700000Y22248638D01*
X22700000Y20751362D01*
X22680315Y20684323D01*
X22663685Y20663686D01*
X22502929Y20502929D01*
X22496903Y20497292D01*
X21700000Y19800001D01*
X21700000Y19059598D01*
X21680315Y18992559D01*
X21653462Y18962770D01*
X21200000Y18600000D01*
X21200000Y18402004D01*
X21190561Y18354552D01*
X21189759Y18352618D01*
X21174500Y18275904D01*
X21174500Y18275902D01*
X21174500Y18275901D01*
X21174500Y17917853D01*
X21174501Y17624000D01*
X21154817Y17556961D01*
X21102013Y17511206D01*
X21050501Y17500000D01*
X20949500Y17500000D01*
X20882461Y17519685D01*
X20836706Y17572489D01*
X20825500Y17624000D01*
X20825500Y17927842D01*
X20825499Y17927856D01*
X20825499Y18275898D01*
X20825499Y18275900D01*
X20810240Y18352617D01*
X20810238Y18352620D01*
X20810238Y18352621D01*
X20809436Y18354559D01*
X20800000Y18402005D01*
X20800000Y18700000D01*
X20736319Y18763681D01*
X20702834Y18825004D01*
X20700000Y18851362D01*
X20700000Y20148638D01*
X20719685Y20215677D01*
X20736319Y20236319D01*
X21002929Y20502929D01*
X21100000Y20600000D01*
X21200000Y20700000D01*
X21400000Y20900000D01*
X21400000Y22248638D01*
X21419685Y22315677D01*
X21436319Y22336319D01*
X21563681Y22463681D01*
X21625004Y22497166D01*
X21651362Y22500000D01*
X22448638Y22500000D01*
X22515677Y22480315D01*
G37*
%TD.AperFunction*%
%TD*%
%TA.AperFunction,Conductor*%
%TO.N,+3.3V*%
G36*
X16495779Y12065561D02*
G01*
X16520516Y12055315D01*
X16609218Y12018574D01*
X16736207Y12001856D01*
X16752926Y11999654D01*
X16752927Y11999654D01*
X16752928Y11999654D01*
X16767904Y12001626D01*
X16896636Y12018574D01*
X16985338Y12055315D01*
X17010075Y12065561D01*
X17057527Y12075000D01*
X17088323Y12075000D01*
X17155362Y12055315D01*
X17191425Y12019891D01*
X17247888Y11935388D01*
X17334883Y11877260D01*
X17334886Y11877260D01*
X17334887Y11877259D01*
X17373241Y11869630D01*
X17411599Y11862000D01*
X18125500Y11862001D01*
X18192539Y11842317D01*
X18238294Y11789513D01*
X18249500Y11738001D01*
X18249500Y11617748D01*
X18261131Y11559271D01*
X18261132Y11559270D01*
X18305447Y11492948D01*
X18371769Y11448633D01*
X18371770Y11448632D01*
X18430247Y11437001D01*
X18430250Y11437000D01*
X18430252Y11437000D01*
X18550500Y11437000D01*
X18617539Y11417315D01*
X18663294Y11364511D01*
X18674500Y11313000D01*
X18674500Y10599103D01*
X18689760Y10522382D01*
X18694435Y10511096D01*
X18690864Y10509618D01*
X18705198Y10463859D01*
X18686720Y10396477D01*
X18664827Y10370061D01*
X17610516Y9407428D01*
X17547736Y9376762D01*
X17526907Y9375000D01*
X16569894Y9375000D01*
X16502855Y9394685D01*
X16490511Y9403741D01*
X16419617Y9462820D01*
X16380718Y9520860D01*
X16375000Y9558079D01*
X16375000Y9961188D01*
X16394685Y10028227D01*
X16426923Y10062088D01*
X16735652Y10282609D01*
X16755309Y10294080D01*
X16759486Y10296028D01*
X16759487Y10296028D01*
X16868316Y10346776D01*
X16953224Y10431684D01*
X17003972Y10540513D01*
X17010500Y10590099D01*
X17010499Y10949900D01*
X17003972Y10999487D01*
X16953224Y11108316D01*
X16868316Y11193224D01*
X16759487Y11243972D01*
X16759485Y11243973D01*
X16759486Y11243973D01*
X16744944Y11245887D01*
X16681048Y11274154D01*
X16677720Y11277073D01*
X16625001Y11324999D01*
X16625000Y11325000D01*
X16624999Y11325000D01*
X16341333Y11325000D01*
X16274294Y11344685D01*
X16266933Y11349800D01*
X16247318Y11364511D01*
X16207048Y11394714D01*
X16193767Y11406233D01*
X16161319Y11438681D01*
X16127834Y11500004D01*
X16125000Y11526362D01*
X16125000Y11898638D01*
X16144685Y11965677D01*
X16161319Y11986319D01*
X16213681Y12038681D01*
X16275004Y12072166D01*
X16301362Y12075000D01*
X16448327Y12075000D01*
X16495779Y12065561D01*
G37*
%TD.AperFunction*%
%TD*%
%TA.AperFunction,Conductor*%
%TO.N,+3.3V*%
G36*
X14215677Y17180315D02*
G01*
X14236319Y17163681D01*
X14563681Y16836319D01*
X14597166Y16774996D01*
X14600000Y16748638D01*
X14600000Y16000000D01*
X15000000Y15600000D01*
X15600000Y15600000D01*
X15800000Y15800000D01*
X15800000Y16030653D01*
X15816613Y16092654D01*
X15864800Y16176115D01*
X15876710Y16220571D01*
X15895499Y16290691D01*
X15895499Y16380124D01*
X15915184Y16447163D01*
X15967988Y16492918D01*
X16019499Y16504124D01*
X16024987Y16504124D01*
X16168696Y16523044D01*
X16271605Y16565670D01*
X16310121Y16581623D01*
X16311577Y16578108D01*
X16361944Y16590987D01*
X16428248Y16568952D01*
X16445255Y16554745D01*
X17068555Y15931445D01*
X17085725Y15900000D01*
X17100000Y15900000D01*
X17263236Y15900000D01*
X17330275Y15880315D01*
X17332042Y15879159D01*
X17334883Y15877260D01*
X17334886Y15877260D01*
X17334887Y15877259D01*
X17373241Y15869630D01*
X17411599Y15862000D01*
X18076000Y15862001D01*
X18143039Y15842317D01*
X18188794Y15789513D01*
X18200000Y15738001D01*
X18200000Y15637000D01*
X18180315Y15569961D01*
X18127511Y15524206D01*
X18076000Y15513000D01*
X17411601Y15513000D01*
X17365360Y15503802D01*
X17358220Y15502382D01*
X17334032Y15500000D01*
X17213784Y15500000D01*
X17146745Y15519685D01*
X17115411Y15548510D01*
X17042630Y15643360D01*
X16995776Y15679313D01*
X16962826Y15724438D01*
X16933422Y15729203D01*
X16793721Y15787068D01*
X16793719Y15787069D01*
X16793718Y15787069D01*
X16695499Y15800000D01*
X16650010Y15805989D01*
X16650008Y15805989D01*
X16506300Y15787069D01*
X16506296Y15787068D01*
X16372386Y15731602D01*
X16257388Y15643360D01*
X16169146Y15528362D01*
X16113680Y15394452D01*
X16113679Y15394448D01*
X16094759Y15250740D01*
X16094759Y15250739D01*
X16113679Y15107031D01*
X16113680Y15107027D01*
X16169146Y14973117D01*
X16169147Y14973115D01*
X16169148Y14973114D01*
X16174375Y14966302D01*
X16199570Y14901134D01*
X16200000Y14890815D01*
X16200000Y14855495D01*
X16180315Y14788456D01*
X16137999Y14748108D01*
X16074133Y14711236D01*
X16074125Y14711230D01*
X15999215Y14636319D01*
X15937892Y14602834D01*
X15911534Y14600000D01*
X15151362Y14600000D01*
X15084323Y14619685D01*
X15063681Y14636319D01*
X15000000Y14700000D01*
X13551362Y14700000D01*
X13484323Y14719685D01*
X13463681Y14736319D01*
X13341569Y14858431D01*
X13308084Y14919754D01*
X13305250Y14946112D01*
X13305250Y14950000D01*
X13302207Y14973114D01*
X13286330Y15093709D01*
X13230861Y15227625D01*
X13225622Y15234453D01*
X13204259Y15289716D01*
X13200000Y15299999D01*
X13200000Y15300000D01*
X13136319Y15363681D01*
X13102834Y15425004D01*
X13100000Y15451362D01*
X13100000Y16694776D01*
X13119685Y16761815D01*
X13141041Y16786938D01*
X13564633Y17168171D01*
X13627630Y17198384D01*
X13647583Y17200000D01*
X14148638Y17200000D01*
X14215677Y17180315D01*
G37*
%TD.AperFunction*%
%TD*%
%TA.AperFunction,Conductor*%
%TO.N,GND*%
G36*
X27215677Y9280315D02*
G01*
X27236319Y9263681D01*
X27563681Y8936319D01*
X27597166Y8874996D01*
X27600000Y8848638D01*
X27600000Y7951362D01*
X27580315Y7884323D01*
X27563681Y7863681D01*
X27336319Y7636319D01*
X27274996Y7602834D01*
X27248638Y7600000D01*
X26051362Y7600000D01*
X25984323Y7619685D01*
X25963681Y7636319D01*
X25736319Y7863681D01*
X25702834Y7925004D01*
X25700000Y7951362D01*
X25700000Y8748638D01*
X25719685Y8815677D01*
X25736319Y8836319D01*
X26163681Y9263681D01*
X26225004Y9297166D01*
X26251362Y9300000D01*
X27148638Y9300000D01*
X27215677Y9280315D01*
G37*
%TD.AperFunction*%
%TD*%
%TA.AperFunction,Conductor*%
%TO.N,+3.3V*%
G36*
X27315677Y11680315D02*
G01*
X27336319Y11663681D01*
X27463681Y11536319D01*
X27497166Y11474996D01*
X27500000Y11448638D01*
X27500000Y10451362D01*
X27480315Y10384323D01*
X27463681Y10363681D01*
X27136319Y10036319D01*
X27074996Y10002834D01*
X27048638Y10000000D01*
X26351362Y10000000D01*
X26284323Y10019685D01*
X26263681Y10036319D01*
X25936319Y10363681D01*
X25902834Y10425004D01*
X25900000Y10451362D01*
X25900000Y11348638D01*
X25919685Y11415677D01*
X25936319Y11436319D01*
X26163681Y11663681D01*
X26225004Y11697166D01*
X26251362Y11700000D01*
X27248638Y11700000D01*
X27315677Y11680315D01*
G37*
%TD.AperFunction*%
%TD*%
%TA.AperFunction,Conductor*%
%TO.N,GND*%
G36*
X23815677Y20280315D02*
G01*
X23836319Y20263681D01*
X23963681Y20136319D01*
X23997166Y20074996D01*
X24000000Y20048638D01*
X24000000Y19051362D01*
X23980315Y18984323D01*
X23963681Y18963681D01*
X23836319Y18836319D01*
X23774996Y18802834D01*
X23748638Y18800000D01*
X22651362Y18800000D01*
X22584323Y18819685D01*
X22563681Y18836319D01*
X22436319Y18963681D01*
X22402834Y19025004D01*
X22400000Y19051362D01*
X22400000Y19948638D01*
X22419685Y20015677D01*
X22436319Y20036319D01*
X22663681Y20263681D01*
X22725004Y20297166D01*
X22751362Y20300000D01*
X23748638Y20300000D01*
X23815677Y20280315D01*
G37*
%TD.AperFunction*%
%TD*%
%TA.AperFunction,Conductor*%
%TO.N,GND*%
G36*
X18315677Y23280315D02*
G01*
X18336319Y23263681D01*
X18463681Y23136319D01*
X18497166Y23074996D01*
X18500000Y23048638D01*
X18500000Y22051362D01*
X18480315Y21984323D01*
X18463681Y21963681D01*
X18136319Y21636319D01*
X18074996Y21602834D01*
X18048638Y21600000D01*
X18000000Y21600000D01*
X17928938Y21600000D01*
X17871461Y21614125D01*
X17870126Y21614824D01*
X17870124Y21614825D01*
X17799072Y21651993D01*
X17799071Y21651994D01*
X17799068Y21651995D01*
X17732042Y21671675D01*
X17732026Y21671679D01*
X17674137Y21680001D01*
X17469410Y21680001D01*
X17450012Y21681528D01*
X17432598Y21684286D01*
X17384849Y21691849D01*
X17379375Y21692843D01*
X17374604Y21693820D01*
X17312883Y21726562D01*
X17278661Y21787476D01*
X17275500Y21815295D01*
X17275500Y22471142D01*
X17275500Y22471144D01*
X17251614Y22560288D01*
X17228975Y22599500D01*
X17205470Y22640212D01*
X17036319Y22809363D01*
X17002834Y22870686D01*
X17000000Y22897044D01*
X17000000Y23048638D01*
X17019685Y23115677D01*
X17036319Y23136319D01*
X17163681Y23263681D01*
X17225004Y23297166D01*
X17251362Y23300000D01*
X18248638Y23300000D01*
X18315677Y23280315D01*
G37*
%TD.AperFunction*%
%TD*%
%TA.AperFunction,Conductor*%
%TO.N,+3.3V*%
G36*
X17339725Y21490232D02*
G01*
X17340420Y21492368D01*
X17349694Y21489355D01*
X17349696Y21489354D01*
X17443481Y21474500D01*
X17674138Y21474501D01*
X17741176Y21454817D01*
X17761818Y21438182D01*
X18363681Y20836319D01*
X18397166Y20774996D01*
X18400000Y20748638D01*
X18400000Y20000000D01*
X18700000Y19700000D01*
X19148638Y19700000D01*
X19215677Y19680315D01*
X19236319Y19663681D01*
X19363681Y19536319D01*
X19397166Y19474996D01*
X19400000Y19448638D01*
X19400000Y18700000D01*
X19522415Y18577585D01*
X19554508Y18521999D01*
X19580201Y18426114D01*
X19639511Y18323387D01*
X19639514Y18323384D01*
X19644458Y18316941D01*
X19643026Y18315843D01*
X19671666Y18263394D01*
X19674500Y18237036D01*
X19674500Y17832145D01*
X19674501Y17562000D01*
X19654817Y17494961D01*
X19602013Y17449206D01*
X19550501Y17438000D01*
X18949500Y17438000D01*
X18882461Y17457685D01*
X18836706Y17510489D01*
X18825500Y17562000D01*
X18825499Y18275898D01*
X18825499Y18275900D01*
X18810240Y18352617D01*
X18810238Y18352620D01*
X18810238Y18352621D01*
X18809436Y18354559D01*
X18800767Y18398148D01*
X18800000Y18399999D01*
X18800000Y18400000D01*
X18600000Y18600000D01*
X18199999Y18600000D01*
X17836319Y18236319D01*
X17774996Y18202834D01*
X17748638Y18200000D01*
X17451362Y18200000D01*
X17384323Y18219685D01*
X17363681Y18236319D01*
X17336319Y18263681D01*
X17302834Y18325004D01*
X17300000Y18351362D01*
X17300000Y18662947D01*
X17319685Y18729986D01*
X17320247Y18730854D01*
X17366444Y18801250D01*
X17382416Y18820877D01*
X17443224Y18881684D01*
X17493972Y18990513D01*
X17493971Y18990513D01*
X17497984Y18999116D01*
X17499171Y18998563D01*
X17506813Y19015144D01*
X17510000Y19020000D01*
X17510000Y19400000D01*
X17510000Y19411790D01*
X17500499Y19449041D01*
X17500499Y19459895D01*
X17500499Y19459900D01*
X17493972Y19509487D01*
X17443224Y19618316D01*
X17358316Y19703224D01*
X17249487Y19753972D01*
X17249485Y19753973D01*
X17249486Y19753973D01*
X17199902Y19760500D01*
X16986292Y19760500D01*
X16919253Y19780185D01*
X16919186Y19780228D01*
X16556894Y20013387D01*
X16511173Y20066220D01*
X16500000Y20117659D01*
X16500000Y20895875D01*
X16519685Y20962914D01*
X16572489Y21008669D01*
X16576551Y21010438D01*
X16578224Y21011132D01*
X16578231Y21011133D01*
X16644552Y21055448D01*
X16688867Y21121769D01*
X16688867Y21121771D01*
X16688868Y21121771D01*
X16700499Y21180248D01*
X16700500Y21180250D01*
X16700500Y21207128D01*
X16720185Y21274167D01*
X16727672Y21284590D01*
X16862770Y21453462D01*
X16920021Y21493514D01*
X16959598Y21500000D01*
X17299033Y21500000D01*
X17339725Y21490232D01*
G37*
%TD.AperFunction*%
%TD*%
%TA.AperFunction,Conductor*%
%TO.N,GND*%
G36*
X32193039Y15630315D02*
G01*
X32238794Y15577511D01*
X32250000Y15526000D01*
X32250000Y14901362D01*
X32230315Y14834323D01*
X32213681Y14813681D01*
X32186319Y14786319D01*
X32124996Y14752834D01*
X32098638Y14750000D01*
X31901362Y14750000D01*
X31834323Y14769685D01*
X31813681Y14786319D01*
X31786319Y14813681D01*
X31752834Y14875004D01*
X31750000Y14901362D01*
X31750000Y15526000D01*
X31769685Y15593039D01*
X31822489Y15638794D01*
X31874000Y15650000D01*
X32126000Y15650000D01*
X32193039Y15630315D01*
G37*
%TD.AperFunction*%
%TD*%
%TA.AperFunction,Conductor*%
%TO.N,GND*%
G36*
X32165677Y16780315D02*
G01*
X32186319Y16763681D01*
X32213681Y16736319D01*
X32247166Y16674996D01*
X32250000Y16648638D01*
X32250000Y15974000D01*
X32230315Y15906961D01*
X32177511Y15861206D01*
X32126000Y15850000D01*
X31874000Y15850000D01*
X31806961Y15869685D01*
X31761206Y15922489D01*
X31750000Y15974000D01*
X31750000Y16648638D01*
X31769685Y16715677D01*
X31786319Y16736319D01*
X31813681Y16763681D01*
X31875004Y16797166D01*
X31901362Y16800000D01*
X32098638Y16800000D01*
X32165677Y16780315D01*
G37*
%TD.AperFunction*%
%TD*%
%TA.AperFunction,Conductor*%
%TO.N,GND*%
G36*
X36589124Y14780315D02*
G01*
X36611612Y14761796D01*
X37115527Y14235972D01*
X37147699Y14173951D01*
X37150000Y14150176D01*
X37150000Y13251362D01*
X37130315Y13184323D01*
X37113681Y13163681D01*
X36986319Y13036319D01*
X36924996Y13002834D01*
X36898638Y13000000D01*
X34201362Y13000000D01*
X34134323Y13019685D01*
X34113681Y13036319D01*
X33986319Y13163681D01*
X33952834Y13225004D01*
X33950000Y13251362D01*
X33950000Y14348638D01*
X33969685Y14415677D01*
X33986319Y14436319D01*
X34313681Y14763681D01*
X34375004Y14797166D01*
X34401362Y14800000D01*
X36522085Y14800000D01*
X36589124Y14780315D01*
G37*
%TD.AperFunction*%
%TD*%
%TA.AperFunction,Conductor*%
%TO.N,GND*%
G36*
X36765677Y18580315D02*
G01*
X36786319Y18563681D01*
X37013681Y18336319D01*
X37047166Y18274996D01*
X37050000Y18248638D01*
X37050000Y17157690D01*
X37030315Y17090651D01*
X37005873Y17062841D01*
X36609617Y16729151D01*
X36545658Y16701025D01*
X36529744Y16700000D01*
X34401362Y16700000D01*
X34334323Y16719685D01*
X34313681Y16736319D01*
X33986319Y17063681D01*
X33952834Y17125004D01*
X33950000Y17151362D01*
X33950000Y18248638D01*
X33969685Y18315677D01*
X33986319Y18336319D01*
X34213681Y18563681D01*
X34275004Y18597166D01*
X34301362Y18600000D01*
X36698638Y18600000D01*
X36765677Y18580315D01*
G37*
%TD.AperFunction*%
%TD*%
M02*
